<svg xmlns="http://www.w3.org/2000/svg" width="379" height="360" viewBox="0 0 3790 3600"><g id="l2wbNBEVTSrqJ1nTzywyFIb" fill="rgb(36,128,228)" style="transform: none;"><g><path id="p3j4ZPXha" d="M2230 2507 c0 -19 -55 -76 -85 -87 -33 -12 -84 11 -111 51 -14 22 -27 29 -51 29 -32 0 -33 -2 -33 -40 0 -26 9 -55 25 -80 56 -89 233 -88 298 2 12 16 22 49 25 83 l4 55 -36 0 c-22 0 -36 -5 -36 -13z"></path><path id="pL1a2frv6" d="M2440 2473 c0 -51 38 -114 80 -135 43 -22 147 -24 193 -4 50 21 70 50 75 111 l4 55 -33 0 c-26 0 -38 -7 -53 -29 -11 -16 -35 -36 -54 -45 -31 -15 -36 -15 -68 0 -18 9 -43 31 -55 50 -17 28 -27 34 -55 34 -33 0 -34 -1 -34 -37z"></path><path id="p1Ebx28BYO" d="M2950 2451 c0 -87 58 -131 172 -131 109 0 158 40 158 128 0 40 -1 42 -31 42 -21 0 -37 -8 -51 -25 -26 -33 -74 -58 -99 -50 -28 9 -79 55 -79 71 0 9 -12 14 -35 14 l-35 0 0 -49z"></path><path id="pwxMBWhbb" d="M210 1991 c-16 -31 -62 -161 -77 -221 -24 -92 -29 -351 -9 -461 40 -218 148 -440 300 -614 l35 -40 1 38 c0 33 -3 37 -25 37 -21 0 -25 5 -25 30 0 25 -4 30 -25 30 -22 0 -25 4 -25 35 0 19 -4 35 -9 35 -5 0 -7 18 -4 39 3 25 0 50 -10 70 -8 17 -19 45 -22 63 -4 18 -14 42 -21 53 -8 11 -14 27 -14 37 0 9 -6 23 -13 30 -49 50 -81 140 -92 253 -3 33 -11 95 -17 138 -12 88 1 195 34 280 10 26 18 57 18 68 0 11 7 27 15 35 16 17 21 84 5 84 -5 0 -14 -9 -20 -19z"></path><path id="p1tCsSiYR" d="M3440 1758 c-92 -64 -281 -158 -375 -188 -184 -57 -474 -77 -661 -45 -110 19 -285 75 -375 121 -38 19 -71 34 -74 34 -3 0 -5 -10 -5 -23 0 -17 11 -28 45 -45 25 -12 54 -22 65 -22 11 0 20 -4 20 -10 0 -5 46 -23 103 -40 56 -18 120 -38 142 -45 23 -7 112 -19 199 -25 156 -11 261 -6 383 21 23 5 57 9 75 9 53 0 182 46 279 101 49 27 93 49 99 49 12 0 100 60 100 68 0 4 11 12 24 18 33 15 37 5 43 -123 6 -111 -11 -249 -32 -256 -6 -3 -20 -40 -30 -84 -10 -43 -21 -82 -25 -88 -5 -5 -11 -41 -15 -80 -10 -111 -11 -115 -45 -115 -28 0 -30 -2 -30 -39 0 -22 5 -42 13 -44 10 -4 10 -6 0 -6 -7 -1 -13 -12 -13 -26 0 -16 -6 -25 -15 -25 -9 0 -19 -8 -22 -17 -4 -10 -12 -22 -20 -26 -7 -4 -13 -14 -13 -21 0 -8 -7 -16 -15 -20 -9 -3 -15 -19 -15 -41 0 -32 -2 -35 -31 -35 -22 0 -32 -5 -36 -20 -3 -11 -12 -20 -19 -20 -9 0 -14 -11 -14 -31 0 -28 2 -30 17 -18 95 75 246 282 308 424 73 163 112 375 101 543 -8 134 -32 243 -54 242 -4 0 -41 -24 -82 -52z"></path><path id="pJQNPKDI3" d="M2020 1670 c19 -11 40 -19 45 -19 6 0 -6 8 -25 19 -19 11 -39 19 -45 19 -5 0 6 -8 25 -19z"></path><path id="pAc7RlUvV" d="M560 558 l45 -40 3 26 c5 38 -14 56 -57 56 l-36 -1 45 -41z"></path><path id="pbxTVVMEb" d="M645 490 c3 -6 33 -28 66 -50 l59 -41 0 31 c0 27 -3 30 -30 30 -23 0 -30 4 -30 20 0 16 -7 20 -36 20 -21 0 -33 -4 -29 -10z"></path><path id="p3X2zA7L6" d="M2856 415 c-8 -8 -19 -15 -25 -15 -6 0 -11 -11 -11 -25 0 -19 4 -23 18 -18 26 10 89 51 97 63 10 16 -62 12 -79 -5z"></path><path id="pKXPtczPZ" d="M872 348 c3 -7 19 -18 36 -25 31 -13 32 -12 32 12 0 22 -4 25 -36 25 -23 0 -34 -4 -32 -12z"></path><path id="p1EwwpKHbb" d="M2710 330 c0 -5 -11 -10 -25 -10 -20 0 -25 -5 -25 -25 0 -14 2 -25 5 -25 14 0 115 54 115 61 0 5 -16 9 -35 9 -19 0 -35 -4 -35 -10z"></path><path id="p3IpsWeZk" d="M1020 280 c0 -12 33 -30 54 -30 9 0 16 9 16 20 0 16 -7 20 -35 20 -19 0 -35 -4 -35 -10z"></path><path id="pZenevPTN" d="M1162 228 c3 -7 19 -18 36 -25 31 -13 32 -12 32 12 0 22 -4 25 -36 25 -23 0 -34 -4 -32 -12z"></path><path id="pqnW2BLEs" d="M2430 210 c0 -22 20 -26 51 -10 30 16 23 30 -16 30 -28 0 -35 -4 -35 -20z"></path><path id="pJEkngiXv" d="M2350 186 c0 -23 2 -24 35 -13 19 6 35 16 35 24 0 8 -13 13 -35 13 -30 0 -35 -3 -35 -24z"></path><path id="pLl4j9D5H" d="M2220 160 c0 -21 10 -24 48 -14 36 10 27 34 -13 34 -28 0 -35 -4 -35 -20z"></path><path id="pxmaREM9d" d="M1500 146 c0 -13 28 -26 58 -26 6 0 12 9 12 20 0 16 -7 20 -35 20 -23 0 -35 -5 -35 -14z"></path><path id="pp3pG8eE8" d="M1600 136 c0 -13 28 -26 58 -26 6 0 12 9 12 20 0 16 -7 20 -35 20 -23 0 -35 -5 -35 -14z"></path><path id="prE8AzWyh" d="M2010 130 c0 -21 10 -24 48 -14 36 10 27 34 -13 34 -28 0 -35 -4 -35 -20z"></path></g></g><g id="lKHZYI9Ra78i2SPGIY5z31" fill="rgb(52,144,247)" style="transform: none;"><g><path id="pGz5eHIAl" d="M2220 2480 c0 -11 -7 -20 -15 -20 -8 0 -15 -6 -15 -14 0 -23 -72 -30 -109 -12 -16 9 -42 16 -56 16 -22 0 -24 -2 -13 -19 6 -10 27 -26 45 -35 80 -38 165 -3 205 84 6 13 7 13 7 0 1 -9 -8 -32 -18 -53 -15 -29 -16 -37 -5 -37 8 0 14 9 14 20 0 11 7 20 15 20 10 0 15 11 15 35 0 33 -2 35 -35 35 -28 0 -35 -4 -35 -20z"></path><path id="pBfPTxnbm" d="M2460 2455 c0 -19 5 -35 10 -35 6 0 10 -7 10 -15 0 -9 8 -19 18 -22 9 -4 19 -10 22 -14 3 -4 19 -10 35 -14 29 -7 29 -6 -5 12 -20 10 -45 36 -59 61 -28 52 -22 67 8 19 24 -39 74 -67 120 -67 38 0 94 26 109 51 11 17 9 19 -18 19 -21 0 -30 -5 -30 -16 0 -14 -8 -16 -54 -11 -52 5 -96 31 -96 57 0 6 -16 10 -35 10 -33 0 -35 -2 -35 -35z"></path><path id="p8mnH8OCS" d="M2960 2450 c0 -44 61 -101 107 -100 12 1 7 6 -13 14 -37 17 -74 61 -74 90 0 20 1 19 13 -4 31 -61 123 -88 187 -55 49 25 37 39 -25 31 -59 -7 -87 2 -116 36 -9 10 -30 18 -48 18 -28 0 -31 -3 -31 -30z"></path><path id="pQb1qvmJY" d="M1990 2409 c0 -19 8 -29 35 -42 20 -9 41 -17 48 -17 7 1 -2 7 -20 15 -17 7 -38 26 -47 42 l-15 28 -1 -26z"></path><path id="pe1wpuBLm" d="M2730 2395 c-10 -12 -10 -15 4 -15 9 0 16 7 16 15 0 8 -2 15 -4 15 -2 0 -9 -7 -16 -15z"></path><path id="p1F2gtdujt" d="M2185 2363 l-30 -14 30 6 c31 7 41 12 34 19 -2 2 -17 -3 -34 -11z"></path><path id="pwdMqCJSe" d="M415 2307 c-40 -49 -39 -47 -6 -47 28 0 31 3 31 30 0 32 -8 37 -25 17z"></path><path id="p8fEaGwAO" d="M1440 2235 c0 -30 3 -35 24 -35 23 0 24 2 13 35 -6 19 -16 35 -24 35 -8 0 -13 -13 -13 -35z"></path><path id="pj7gHrsGW" d="M358 2233 c-26 -30 -98 -136 -98 -145 0 -4 11 -8 25 -8 21 0 25 5 25 30 0 23 4 30 20 30 13 0 20 7 20 20 0 11 7 20 15 20 10 0 15 11 15 35 0 40 -1 41 -22 18z"></path><path id="prI6dm0EE" d="M220 2008 c-72 -160 -107 -312 -97 -424 27 -308 48 -394 114 -462 7 -7 13 -21 13 -30 0 -10 6 -26 14 -37 7 -11 17 -36 21 -55 4 -19 12 -41 17 -47 7 -9 7 -13 -1 -13 -6 0 -17 11 -23 25 -6 14 -15 25 -20 25 -4 0 -8 5 -8 11 0 6 -9 22 -20 36 -31 39 -24 10 16 -70 108 -215 274 -399 488 -541 109 -72 116 -75 116 -42 0 21 -5 26 -25 26 -16 0 -25 6 -25 15 0 10 -10 15 -29 15 -23 0 -30 5 -33 22 -2 15 -11 24 -25 26 -13 2 -23 10 -23 18 0 8 -6 14 -14 14 -8 0 -16 7 -20 15 -3 10 -19 15 -41 15 l-37 0 7 65 c8 68 4 80 -44 134 -11 13 -21 35 -21 48 0 20 5 23 35 23 34 0 35 1 35 40 0 29 -5 43 -20 52 -11 7 -20 16 -20 20 0 11 -38 48 -49 48 -9 0 -21 24 -21 41 0 5 16 9 35 9 19 0 35 -3 35 -8 0 -4 14 -14 32 -21 18 -8 55 -32 83 -53 27 -21 56 -38 63 -38 6 0 12 -4 12 -9 0 -5 15 -14 33 -21 17 -7 41 -23 52 -35 19 -20 28 -21 165 -20 207 3 190 0 190 39 0 33 -30 71 -119 148 l-32 28 45 0 c47 0 71 -12 173 -88 32 -23 84 -55 115 -70 31 -15 59 -35 62 -44 2 -11 14 -18 30 -18 14 0 26 -4 26 -10 0 -17 90 -12 96 5 4 10 21 15 54 15 29 0 50 5 53 13 3 7 6 5 6 -5 1 -24 66 -25 75 -2 13 35 6 76 -14 81 -11 3 -20 10 -20 17 0 6 -19 25 -43 41 l-42 30 53 3 c51 3 92 -14 127 -52 6 -6 27 -20 48 -30 21 -11 50 -30 64 -43 14 -13 38 -27 54 -30 16 -3 29 -11 29 -17 0 -8 51 -11 175 -11 l175 0 0 32 c0 43 -9 63 -29 63 -10 0 -23 11 -31 24 -7 14 -32 39 -56 56 -24 17 -44 33 -44 36 0 12 90 2 104 -11 8 -8 19 -15 23 -15 11 0 97 -61 101 -72 2 -5 10 -8 18 -8 8 0 23 -9 33 -19 28 -28 76 -51 106 -51 15 0 25 -6 25 -14 0 -21 11 -22 175 -21 l150 0 3 42 c3 34 0 42 -17 48 -12 3 -21 12 -21 18 0 7 -17 23 -37 37 -35 24 -36 25 -12 28 13 2 30 11 37 20 6 9 12 11 12 5 0 -7 10 -15 23 -19 21 -6 76 -44 105 -71 7 -7 17 -13 21 -13 4 0 21 -11 37 -25 16 -14 48 -37 72 -52 23 -15 42 -31 42 -35 0 -4 -9 -17 -20 -28 -11 -11 -20 -29 -20 -40 0 -15 -7 -20 -25 -20 -29 0 -45 -26 -45 -74 0 -33 2 -36 30 -36 39 0 80 27 80 51 0 12 7 19 20 19 35 0 170 195 233 336 33 74 35 99 5 64 -17 -20 -20 -21 -13 -5 4 11 7 31 6 44 0 13 3 29 7 35 5 6 17 45 26 86 10 41 23 80 30 85 43 35 49 426 7 468 -8 8 -70 -21 -106 -52 -37 -30 -84 -61 -95 -61 -5 0 -50 -22 -99 -49 -96 -54 -226 -101 -277 -101 -18 0 -54 -4 -81 -9 -126 -25 -202 -30 -333 -20 -130 9 -158 15 -370 81 -123 38 -331 161 -420 248 -45 43 -50 44 -50 11 0 -21 5 -31 15 -31 8 0 15 -6 15 -14 0 -29 174 -150 320 -221 25 -13 105 -42 179 -65 74 -23 152 -53 173 -66 20 -13 40 -24 44 -24 9 0 34 -28 34 -39 0 -6 3 -11 8 -11 4 0 30 -21 59 -47 67 -62 120 -105 149 -121 33 -17 30 -32 -6 -32 -16 0 -30 5 -30 10 0 6 -7 10 -15 10 -8 0 -15 7 -15 15 0 10 -10 15 -34 15 -18 0 -45 9 -59 20 -14 11 -30 20 -36 20 -6 0 -11 5 -11 10 0 6 -6 10 -13 10 -7 0 -20 8 -29 18 -31 31 -52 48 -108 82 -30 19 -61 41 -69 48 -11 11 -28 13 -70 6 -120 -17 -261 -5 -261 22 0 9 -12 14 -35 14 -33 0 -35 -2 -35 -35 0 -19 5 -35 10 -35 6 0 10 -7 10 -15 0 -8 4 -15 8 -15 4 0 34 -25 66 -55 31 -30 60 -55 64 -55 4 0 30 -21 57 -45 l50 -45 -42 0 c-47 0 -74 15 -213 118 -47 34 -111 80 -144 101 l-59 39 -132 -5 c-94 -4 -134 -3 -139 6 -4 6 -27 11 -52 11 -43 0 -44 -1 -44 -31 0 -25 11 -42 57 -85 31 -30 71 -64 90 -76 19 -13 33 -32 33 -43 0 -18 -5 -20 -40 -17 -24 3 -40 9 -40 17 0 7 -10 15 -22 19 -13 3 -38 19 -56 36 -18 16 -37 30 -43 30 -5 0 -9 5 -9 10 0 6 -6 10 -13 10 -7 0 -22 8 -33 18 -10 9 -52 38 -91 65 -52 33 -83 47 -108 47 -20 0 -35 -5 -35 -12 0 -8 -35 -9 -130 -5 l-130 7 0 -35 c0 -29 8 -42 52 -82 28 -27 61 -58 73 -70 12 -13 26 -23 31 -23 12 -1 54 -36 54 -45 0 -11 -111 0 -118 12 -10 15 -130 103 -141 103 -5 0 -11 4 -13 9 -2 5 -47 39 -100 75 -74 50 -105 66 -132 66 -19 0 -37 -6 -40 -12 -5 -10 -7 -10 -12 0 -7 14 -84 17 -84 2 0 -18 -60 -11 -67 8 -3 9 -14 28 -23 42 -21 30 -45 163 -44 240 1 56 24 133 69 236 26 59 33 114 14 114 -5 0 -23 -28 -39 -62z m3283 -312 c3 -8 1 -45 -4 -83 -5 -37 -9 -81 -7 -98 1 -16 -2 -47 -6 -67 l-8 -37 -39 19 c-46 24 -75 25 -124 4 -38 -15 -73 -15 -197 2 l-48 6 0 -36 c0 -20 3 -36 8 -36 4 0 32 -24 63 -52 74 -69 121 -108 131 -108 4 0 8 -9 8 -20 0 -30 -62 -28 -87 3 -10 12 -31 29 -47 37 -57 29 -66 35 -66 42 0 5 -5 8 -12 8 -6 0 -18 6 -27 14 -9 8 -30 27 -47 43 -30 28 -54 42 -148 92 l-49 26 49 8 c27 4 79 5 115 1 44 -4 69 -2 73 5 4 6 17 11 30 11 12 0 26 4 32 8 5 5 32 17 59 27 28 9 57 25 65 35 8 10 49 35 90 55 41 21 82 42 90 47 8 4 24 12 35 17 12 5 27 16 34 25 17 20 27 20 34 2z m-3143 -512 c0 -19 -46 -18 -54 2 -11 29 -6 33 24 23 17 -6 30 -17 30 -25z"></path><path id="p1EZQa9lS8" d="M1561 2008 c-1 -21 4 -38 9 -38 6 0 10 -7 10 -15 0 -8 7 -15 15 -15 8 0 15 -8 15 -19 0 -26 24 -43 55 -39 l26 3 -38 47 c-21 25 -50 61 -65 80 l-27 33 0 -37z"></path><path id="p1D5ImM0k0" d="M1600 2034 c0 -7 9 -22 20 -35 25 -31 26 -12 0 21 -11 14 -20 20 -20 14z"></path><path id="picdXKkiE" d="M1660 1945 c13 -14 26 -23 28 -20 7 7 -29 45 -41 45 -6 0 0 -11 13 -25z"></path><path id="pZOu784Qm" d="M1800 1810 c19 -16 40 -34 45 -38 6 -5 33 -21 60 -37 28 -16 52 -32 55 -35 7 -7 99 -50 108 -50 4 1 -10 10 -30 21 -25 12 -38 27 -38 39 0 17 -7 20 -39 20 -32 0 -52 10 -110 55 -75 58 -110 75 -51 25z"></path><path id="p8yIXRNVL" d="M2080 1652 c0 -11 32 -29 69 -37 18 -4 44 -13 59 -21 15 -8 34 -14 42 -13 10 0 11 2 3 6 -7 2 -13 14 -13 25 0 18 -5 20 -45 16 -39 -5 -45 -3 -45 13 0 15 -7 19 -35 19 -19 0 -35 -3 -35 -8z"></path><path id="pQZ8WrABA" d="M2330 1580 c0 -12 33 -30 54 -30 9 0 16 9 16 20 0 16 -7 20 -35 20 -19 0 -35 -4 -35 -10z"></path><path id="pPqcHZ2L6" d="M3067 573 c-4 -3 -7 -15 -7 -25 0 -13 -7 -18 -25 -18 -21 0 -25 -5 -25 -31 l0 -30 28 19 c15 11 45 36 67 56 l40 35 -36 1 c-20 0 -39 -3 -42 -7z"></path><path id="p7ZQycjIT" d="M2930 445 c0 -31 11 -32 47 0 l28 24 -37 1 c-34 0 -38 -3 -38 -25z"></path><path id="pj6Lr6Xct" d="M2780 365 c0 -10 -10 -15 -30 -15 -25 0 -30 -4 -30 -25 0 -14 3 -25 6 -25 14 0 124 63 124 71 0 5 -16 9 -35 9 -24 0 -35 -5 -35 -15z"></path><path id="p52gzKrr1" d="M910 331 c0 -5 19 -18 43 -30 l42 -21 3 21 c2 12 -2 26 -10 30 -17 12 -78 11 -78 0z"></path><path id="pUP5knHX1" d="M2632 301 c-8 -4 -12 -18 -10 -30 l3 -21 43 21 c23 12 42 25 42 30 0 11 -61 12 -78 0z"></path><path id="pfdcMIXzD" d="M2540 261 c0 -4 -19 -11 -42 -14 -24 -3 -44 -11 -46 -16 -2 -6 -17 -11 -33 -11 -16 0 -29 -4 -29 -10 0 -5 -16 -10 -35 -10 -29 0 -35 -4 -35 -21 0 -23 0 -23 100 4 159 44 235 87 156 87 -20 0 -36 -4 -36 -9z"></path><path id="pYZhGuNdq" d="M1100 250 c0 -12 33 -30 54 -30 9 0 16 9 16 20 0 16 -7 20 -35 20 -19 0 -35 -4 -35 -10z"></path><path id="pjqqEQbze" d="M1270 196 c0 -14 76 -38 158 -51 38 -6 42 -5 42 13 0 18 -9 21 -65 27 -36 4 -65 11 -65 16 0 5 -16 9 -35 9 -23 0 -35 -5 -35 -14z"></path><path id="pjMW3n4g8" d="M2138 163 c-20 -3 -28 -10 -28 -24 0 -22 3 -23 70 -8 31 7 50 16 50 25 0 14 -30 16 -92 7z"></path><path id="pHaTiMDK1" d="M1610 136 c0 -13 28 -26 58 -26 6 0 12 9 12 20 0 16 -7 20 -35 20 -23 0 -35 -5 -35 -14z"></path><path id="pXIXfJb4Q" d="M2000 130 c0 -21 10 -24 48 -14 36 10 27 34 -13 34 -28 0 -35 -4 -35 -20z"></path></g></g><g id="l6vSP8xqt7w4GNOKf98YbTf" fill="rgb(70,155,248)" style="transform: none;"><g><path id="pIAWBvVZI" d="M576 2470 l-50 -50 35 0 c43 0 71 30 67 71 l-3 29 -49 -50z"></path><path id="p8ln3sLfM" d="M480 2377 c-30 -24 -156 -185 -203 -260 -10 -16 -34 -65 -53 -110 -75 -174 -103 -294 -83 -354 6 -19 13 -51 15 -71 6 -67 16 -107 34 -132 9 -14 19 -33 23 -42 5 -13 22 -17 89 -20 99 -4 150 1 142 13 -3 5 -2 9 1 9 10 0 200 -132 203 -141 2 -5 8 -9 13 -9 9 0 130 -87 139 -100 16 -24 174 -30 209 -8 20 12 19 14 -27 55 -26 24 -51 43 -56 43 -5 0 -19 10 -31 23 -12 12 -45 44 -74 70 -29 27 -51 50 -49 51 2 1 57 0 123 -4 123 -7 149 -5 139 11 -3 5 -3 9 1 9 8 0 146 -92 169 -112 11 -10 26 -18 33 -18 7 0 13 -4 13 -10 0 -5 4 -10 9 -10 6 0 25 -14 43 -30 18 -17 43 -33 56 -36 12 -4 22 -12 22 -20 0 -8 6 -14 14 -14 8 0 17 -6 20 -12 5 -10 7 -10 12 0 8 17 24 15 24 -4 0 -11 4 -14 13 -7 6 4 47 7 89 5 61 -3 78 -7 81 -20 3 -11 5 -9 6 7 1 26 -24 50 -52 51 -10 0 -16 4 -12 10 5 8 -12 29 -47 55 -103 77 -196 165 -175 165 7 0 17 -4 23 -10 11 -11 244 -17 261 -7 10 7 82 -39 213 -135 110 -82 168 -118 188 -120 9 -1 52 0 95 0 62 2 77 5 77 17 0 9 -6 18 -14 21 -7 3 -40 30 -72 60 -32 30 -62 54 -66 54 -5 0 -25 17 -46 38 -20 20 -51 48 -67 61 l-30 24 30 -8 c43 -12 265 -15 265 -4 0 13 16 11 32 -4 7 -7 38 -28 68 -47 56 -34 77 -51 108 -82 9 -10 22 -18 29 -18 7 0 13 -3 13 -8 0 -7 6 -11 65 -42 15 -8 40 -27 55 -42 25 -25 32 -26 84 -21 48 5 59 3 71 -13 13 -17 14 -18 15 -1 0 11 8 17 25 17 30 0 35 29 5 37 -10 3 -22 14 -25 24 -4 11 -17 25 -29 32 -29 15 -82 58 -149 120 -29 26 -56 47 -60 47 -5 0 -5 4 -2 10 4 6 17 4 36 -6 24 -12 59 -15 158 -13 123 2 129 1 167 -25 21 -14 42 -26 47 -26 4 0 22 -14 40 -31 56 -53 63 -59 75 -59 7 0 12 -3 12 -8 0 -7 9 -13 66 -42 16 -8 37 -25 47 -37 17 -21 27 -23 103 -23 68 0 84 -3 84 -15 0 -8 5 -15 11 -15 5 0 7 5 4 11 -4 6 3 13 14 16 25 6 23 22 -3 37 -10 6 -33 25 -51 41 -18 17 -47 41 -65 55 -18 14 -47 39 -65 55 -17 17 -46 43 -65 59 -19 16 -26 25 -15 20 11 -5 79 -9 150 -10 72 -1 119 1 106 3 -18 4 -21 7 -11 13 13 8 68 -13 80 -30 10 -15 47 -20 57 -8 19 27 44 127 35 145 -5 11 -5 53 1 105 9 75 8 90 -7 112 -20 32 -46 29 -84 -7 -16 -15 -31 -25 -34 -22 -2 3 -13 -4 -23 -15 -10 -11 -24 -20 -32 -20 -20 0 -145 -69 -163 -90 -8 -10 -37 -26 -65 -35 -27 -10 -54 -22 -59 -27 -6 -4 -20 -8 -32 -8 -13 0 -26 -5 -29 -10 -4 -7 -13 -6 -27 1 -15 8 -42 8 -102 0 -123 -18 -136 -21 -136 -38 0 -14 -15 -15 -125 -9 -100 6 -124 4 -122 -6 2 -7 2 -10 0 -5 -3 4 -9 7 -14 7 -5 0 -27 11 -47 24 -21 13 -99 43 -173 66 -133 42 -180 62 -270 113 -276 157 -477 405 -534 660 -12 55 -21 77 -32 77 -13 0 -15 -10 -10 -57 7 -67 41 -176 56 -181 6 -2 11 -12 11 -23 0 -21 55 -128 73 -144 7 -5 18 -22 24 -37 14 -32 181 -207 228 -239 23 -16 35 -32 35 -48 0 -23 -1 -23 -97 -20 l-98 4 -3 -37 c-3 -31 2 -40 32 -65 20 -15 36 -32 36 -37 0 -5 -24 -6 -53 -4 -40 3 -67 14 -109 41 -30 20 -60 37 -65 37 -5 0 -18 9 -29 21 -39 44 -67 50 -179 43 -76 -5 -112 -4 -128 5 -13 7 -43 11 -68 9 -43 -3 -44 -4 -46 -38 -3 -31 2 -39 42 -70 25 -19 45 -39 45 -43 0 -12 -112 3 -129 16 -7 6 -21 16 -31 22 -10 5 -53 31 -96 58 -57 35 -87 47 -115 47 -28 0 -39 -4 -39 -15 0 -20 -20 -19 -34 1 -10 13 -25 14 -106 7 l-95 -8 -3 -36 c-3 -31 2 -40 27 -59 42 -29 39 -40 -9 -40 -46 0 -76 13 -170 76 -168 112 -170 123 -68 379 22 55 43 112 45 128 3 15 12 27 19 27 8 0 14 9 14 20 0 11 7 20 15 20 10 0 15 10 15 34 0 30 3 35 28 38 21 2 28 9 30 30 2 19 10 28 25 30 14 2 23 11 25 26 2 12 10 22 18 22 9 0 14 11 14 30 0 34 0 34 -20 17z m2948 -821 c12 -11 22 -25 22 -33 0 -19 -84 -17 -100 2 -7 8 -19 15 -26 15 -24 0 -15 20 18 40 34 20 36 20 86 -24z"></path><path id="pQDbS949k" d="M1539 2136 c35 -89 133 -215 247 -314 67 -58 63 -55 119 -86 28 -15 42 -21 31 -14 -85 59 -171 130 -223 185 -64 67 -145 180 -162 227 -6 14 -13 26 -16 26 -2 0 0 -11 4 -24z"></path><path id="pkyDu8NKO" d="M1960 1705 c0 -7 101 -57 106 -53 2 2 -21 16 -51 31 -30 15 -55 25 -55 22z"></path><path id="pWeXDOKlJ" d="M200 1340 c0 -5 6 -10 14 -10 17 0 30 -71 14 -81 -13 -9 -2 -29 17 -29 8 0 19 -17 25 -40 9 -35 14 -40 40 -40 20 0 30 -5 30 -15 0 -8 5 -15 10 -15 6 0 10 7 10 15 0 10 10 15 30 15 20 0 30 -5 30 -15 0 -8 5 -15 10 -15 6 0 10 6 10 14 0 8 8 17 18 19 16 4 16 5 0 6 -10 0 -18 6 -18 11 0 6 -11 15 -25 20 -15 6 -25 17 -25 29 0 13 -11 23 -35 31 -19 6 -37 20 -40 31 -4 10 -11 19 -16 19 -5 0 -17 8 -27 18 -19 17 -58 42 -67 42 -3 0 -5 -4 -5 -10z"></path><path id="p1HoKYhW7i" d="M351 1080 c-1 -12 112 -130 125 -130 9 0 44 -40 44 -51 0 -6 -15 -9 -34 -8 -38 4 -58 -7 -32 -17 9 -3 16 -10 16 -16 0 -5 -4 -6 -10 -3 -6 3 -10 -4 -10 -17 0 -18 2 -20 10 -8 7 11 10 11 10 2 0 -7 5 -10 10 -7 6 3 10 2 10 -3 0 -6 -7 -12 -15 -16 -20 -7 -19 -18 5 -47 21 -26 25 -30 58 -73 54 -70 -1 -41 -93 49 -55 53 -159 180 -168 205 -4 10 -6 11 -6 2 -1 -7 4 -23 10 -35 14 -26 81 -130 89 -137 3 -3 22 -25 42 -50 56 -68 78 -91 143 -151 95 -85 127 -109 147 -109 10 0 18 -6 18 -13 0 -12 137 -102 181 -119 15 -6 19 -3 19 17 0 16 -6 25 -15 25 -8 0 -15 5 -15 10 0 6 -17 11 -37 12 -37 1 -37 1 -5 5 29 4 32 7 32 38 0 19 -6 39 -12 44 -48 39 -70 62 -64 68 3 4 42 6 86 4 l80 -2 0 31 0 32 77 -7 c49 -5 89 -15 112 -29 33 -19 51 -21 214 -22 l177 0 0 29 0 30 77 -7 c52 -4 89 -13 119 -30 41 -23 51 -24 218 -23 175 1 176 1 176 23 0 47 102 47 194 -1 69 -36 138 -46 152 -24 5 8 40 10 120 5 l114 -7 0 30 0 31 71 0 c92 0 133 -21 125 -64 -3 -16 -6 -35 -6 -42 0 -10 -13 -14 -40 -14 -39 0 -40 -1 -40 -35 0 -34 1 -35 40 -35 33 0 40 3 40 20 0 26 28 26 32 0 8 -52 306 225 406 379 80 122 84 151 8 46 -32 -43 -148 -157 -154 -150 -8 7 19 45 29 40 5 -4 9 5 9 19 0 14 5 26 10 26 15 0 -7 39 -34 62 -21 17 -21 17 -1 19 11 1 23 1 28 0 4 0 7 3 7 9 0 12 2 12 -37 1 -32 -9 -53 0 -101 46 -7 7 -17 13 -22 13 -5 0 -15 6 -22 13 -26 24 -87 67 -96 67 -5 0 -19 9 -32 20 -20 17 -37 20 -127 20 -56 0 -103 -3 -103 -7 0 -5 17 -22 38 -40 20 -17 55 -48 77 -67 22 -20 43 -36 48 -36 4 0 7 -7 7 -16 0 -13 -19 -15 -142 -13 -148 2 -177 8 -219 50 -10 10 -25 19 -33 19 -8 0 -16 3 -18 8 -4 11 -90 72 -101 72 -4 0 -15 7 -23 15 -10 9 -34 15 -65 15 -32 0 -49 4 -49 13 0 9 -3 8 -9 -2 -6 -9 -23 -12 -55 -10 -25 2 -46 1 -46 -3 0 -10 43 -52 97 -93 45 -34 79 -72 71 -80 -2 -2 -69 -5 -149 -6 -141 -2 -146 -1 -171 23 -15 13 -44 33 -64 44 -20 10 -47 28 -60 39 -12 12 -35 27 -51 35 -15 8 -32 19 -36 25 -6 6 -10 6 -14 -2 -7 -18 -33 -16 -33 2 0 20 -16 19 -24 -1 -3 -8 -10 -12 -16 -9 -6 4 -8 11 -5 16 4 5 -24 9 -66 9 l-72 0 54 -55 c30 -31 69 -66 86 -78 53 -36 43 -47 -44 -48 -197 -2 -212 1 -313 73 -34 24 -77 52 -95 63 -17 11 -40 26 -49 34 -19 16 -218 20 -224 4 -2 -4 6 -14 17 -22 14 -9 21 -10 21 -2 0 6 4 11 9 11 5 0 7 -8 5 -17 -3 -12 9 -29 32 -48 42 -34 126 -117 122 -120 -2 -1 -20 -5 -40 -9 -31 -6 -38 -4 -38 9 0 11 6 14 25 9 15 -4 25 -2 25 5 0 7 -38 11 -115 11 -70 0 -115 -4 -115 -10 0 -5 8 -10 18 -10 14 0 15 -2 2 -10 -23 -15 -43 -12 -37 4 4 10 1 13 -9 9 -7 -3 -14 0 -14 6 0 6 -18 18 -40 27 -22 9 -40 20 -40 25 0 5 -6 9 -12 9 -7 0 -36 17 -63 38 -28 20 -64 44 -80 52 -36 18 -55 35 -55 49 0 5 -12 4 -27 -5 -16 -8 -40 -12 -55 -8 -21 4 -28 2 -28 -10 0 -10 -9 -16 -21 -16 -15 0 -19 5 -15 15 4 11 -2 15 -23 15 -16 0 -32 6 -34 13 -4 8 -6 8 -6 -3z m2514 -40 c-3 -5 -13 -10 -21 -10 -8 0 -14 5 -14 10 0 6 9 10 21 10 11 0 17 -4 14 -10z m-2305 -180 c0 -4 -11 -5 -25 -2 -20 3 -23 7 -14 18 9 11 15 11 25 3 8 -6 14 -15 14 -19z m1174 22 c2 -4 1 -14 -3 -21 -6 -9 -10 -7 -14 8 -5 20 7 29 17 13z m596 4 c0 -2 3 -11 6 -19 4 -12 -3 -14 -38 -10 -50 6 -64 13 -25 13 15 0 27 5 27 10 0 6 7 10 15 10 8 0 15 -2 15 -4z m588 -18 c-2 -5 -7 -9 -11 -9 -4 1 -17 1 -29 1 -22 1 -22 1 -5 15 20 14 50 10 45 -7z m-1373 -13 c0 -11 -8 -21 -17 -23 -11 -2 -18 3 -18 12 0 12 -7 15 -25 12 -13 -3 -27 -1 -30 3 -8 14 3 17 47 16 35 -1 43 -4 43 -20z m-522 8 c-13 -2 -35 -2 -50 0 -16 2 -5 4 22 4 28 0 40 -2 28 -4z m2151 -182 c3 -5 -5 -16 -19 -25 -27 -18 -30 -15 -15 15 11 20 25 25 34 10z"></path><path id="pVjxvy01i" d="M3320 1056 c0 -8 5 -18 10 -21 6 -3 10 3 10 14 0 12 -4 21 -10 21 -5 0 -10 -6 -10 -14z"></path><path id="pTnZBEDKM" d="M3427 974 c-10 -19 -12 -32 -7 -29 12 7 33 55 27 61 -2 2 -11 -12 -20 -32z"></path><path id="pOFjRgHMI" d="M2830 385 c0 -30 3 -30 41 -8 38 23 37 33 -6 33 -31 0 -35 -3 -35 -25z"></path><path id="p1BP3L4EeX" d="M960 310 c0 -10 38 -32 85 -50 22 -8 25 -7 25 14 0 15 -9 27 -25 34 -31 15 -85 16 -85 2z"></path><path id="pCZhF5LIw" d="M2590 265 c0 -24 1 -25 32 -12 46 19 48 37 4 37 -32 0 -36 -3 -36 -25z"></path><path id="p09a4XjSt" d="M1140 237 c0 -8 30 -23 73 -36 39 -12 86 -26 103 -31 44 -14 54 -12 54 10 0 16 -7 20 -34 20 -19 0 -36 3 -38 8 -5 11 -100 42 -130 42 -17 0 -28 -5 -28 -13z"></path><path id="p2Jt0aAHA" d="M2340 201 c0 -5 -29 -12 -65 -16 -56 -6 -65 -9 -65 -27 0 -18 4 -19 43 -13 81 13 157 37 157 51 0 9 -12 14 -35 14 -19 0 -35 -4 -35 -9z"></path><path id="p1HHq5v3QE" d="M1410 166 c0 -13 28 -26 58 -26 6 0 12 9 12 20 0 16 -7 20 -35 20 -23 0 -35 -5 -35 -14z"></path><path id="p1C8kBY5MI" d="M1510 146 c0 -13 28 -26 58 -26 6 0 12 9 12 20 0 16 -7 20 -35 20 -23 0 -35 -5 -35 -14z"></path><path id="pQZgORRRG" d="M2100 140 c0 -21 10 -24 48 -14 36 10 27 34 -13 34 -28 0 -35 -4 -35 -20z"></path><path id="puszfsw4t" d="M1620 136 c0 -13 28 -26 58 -26 6 0 12 9 12 20 0 16 -7 20 -35 20 -23 0 -35 -5 -35 -14z"></path><path id="pOkYjcnFj" d="M1990 130 c0 -21 10 -24 48 -14 36 10 27 34 -13 34 -28 0 -35 -4 -35 -20z"></path></g></g><g id="l1WSF3PQ7AbFFpRrIBk5pfT" fill="rgb(117,160,198)" style="transform: none;"><g><path id="pDu0p5zQD" d="M3328 3558 c-42 -11 -52 -38 -14 -38 52 0 86 12 86 31 0 21 -14 22 -72 7z"></path><path id="pbQNfZVlK" d="M3175 3501 c-22 -10 -46 -25 -54 -34 -12 -15 -10 -17 17 -17 48 0 82 20 82 47 0 12 -1 23 -2 23 -2 0 -21 -9 -43 -19z"></path><path id="p18ecOVBDB" d="M2998 3387 c-31 -23 -57 -45 -57 -49 -1 -5 15 -8 34 -8 28 0 35 4 35 20 0 15 7 20 25 20 21 0 25 5 25 30 0 17 -1 30 -2 30 -2 -1 -29 -20 -60 -43z"></path><path id="pcOeC77CU" d="M2520 3383 c-81 -6 -110 -13 -110 -28 0 -12 14 -15 59 -15 102 0 151 10 151 31 0 20 2 20 -100 12z"></path><path id="pXyWYyUD0" d="M2630 3372 c0 -22 39 -32 133 -32 43 0 57 3 57 15 0 15 -21 20 -127 30 -58 5 -63 4 -63 -13z"></path><path id="p1DdkZZ2aG" d="M2860 3340 c0 -16 7 -20 35 -20 40 0 49 24 13 34 -38 10 -48 7 -48 -14z"></path><path id="p5FFnS4N7" d="M2263 3338 c-41 -13 -44 -38 -5 -38 47 0 72 11 72 31 0 21 -17 23 -67 7z"></path><path id="pyPWr2pt2" d="M2138 3299 c-29 -16 -21 -29 17 -29 28 0 35 4 35 20 0 22 -24 26 -52 9z"></path><path id="pOoFPOai" d="M3380 3275 c0 -40 24 -49 34 -12 10 37 7 47 -14 47 -16 0 -20 -7 -20 -35z"></path><path id="pKYeJ03Ed" d="M1993 3234 c-43 -21 -42 -34 2 -34 31 0 35 3 35 25 0 14 -1 25 -2 25 -2 0 -18 -8 -35 -16z"></path><path id="panSL7uX4" d="M1883 3165 l-28 -24 38 -1 c33 0 37 3 37 25 0 31 -11 32 -47 0z"></path><path id="pxP7VTomU" d="M1698 3010 l-28 -35 26 -3 c33 -4 36 -1 32 39 l-3 34 -27 -35z"></path><path id="pTCTzTLkn" d="M1588 2873 c-29 -34 -30 -53 -3 -53 22 0 25 4 25 35 0 40 -1 41 -22 18z"></path><path id="pcetu9qTQ" d="M1461 2851 c-21 -13 -42 -104 -57 -241 -16 -152 -10 -230 17 -230 16 0 18 7 14 65 -8 115 34 362 67 402 8 10 6 13 -8 13 -11 0 -25 -4 -33 -9z"></path><path id="pqsVujBnP" d="M1530 2764 c-19 -43 -60 -190 -60 -213 0 -6 8 -11 18 -11 14 0 21 13 30 51 7 28 12 61 12 75 0 13 5 24 10 24 6 0 10 11 10 25 0 14 5 25 10 25 6 0 10 16 10 35 0 48 -17 44 -40 -11z"></path><path id="pXOVydIIg" d="M1965 2602 c-27 -36 -33 -144 -12 -195 14 -31 21 -37 47 -37 l30 0 -25 40 c-34 55 -31 64 8 25 74 -74 176 -67 230 17 29 45 36 38 13 -15 -28 -67 -103 -103 -173 -82 -42 13 -43 12 -43 -10 0 -13 7 -26 16 -29 29 -11 115 -6 151 9 72 30 93 69 93 173 0 98 -20 132 -77 132 l-36 0 5 -45 6 -45 -77 0 -76 0 3 45 4 45 -33 0 c-25 -1 -39 -8 -54 -28z"></path><path id="p10MbnFMrz" d="M2968 2613 c-42 -49 -49 -145 -15 -213 28 -57 87 -90 163 -90 67 0 84 7 84 35 0 21 -2 22 -38 12 -21 -5 -55 -7 -77 -3 -47 9 -105 63 -105 98 1 22 1 22 12 3 47 -83 173 -94 235 -21 l26 31 -7 -30 c-4 -16 -15 -39 -24 -49 -16 -18 -16 -19 1 -13 10 4 27 7 36 7 26 0 41 42 41 115 0 88 -22 125 -72 125 -38 0 -38 0 -38 -40 l0 -40 -74 0 -74 0 6 45 5 45 -35 0 c-21 0 -41 -7 -50 -17z"></path><path id="pfhKEw7Xi" d="M2456 2595 c-11 -17 -16 -48 -16 -105 0 -67 3 -83 20 -100 11 -11 20 -24 20 -30 0 -5 7 -10 15 -10 8 0 15 -4 15 -9 0 -14 59 -31 110 -31 68 0 110 17 110 44 0 26 18 46 41 46 23 0 29 20 29 90 0 61 -13 109 -33 122 -7 4 -27 8 -46 8 -33 0 -33 0 -29 -40 l4 -40 -76 0 -76 0 4 40 4 40 -40 0 c-31 0 -43 -5 -56 -25z m126 -205 c53 -16 108 1 149 47 l32 37 -7 -29 c-16 -63 -83 -102 -158 -92 -52 7 -84 29 -108 77 -29 57 -25 60 18 13 21 -23 53 -46 74 -53z"></path><path id="pYZUhAf5G" d="M1470 2369 c0 -32 24 -99 36 -99 15 0 19 46 8 88 -6 22 -44 32 -44 11z"></path><path id="pwFxCqAgT" d="M1500 2244 c0 -15 8 -36 51 -129 44 -96 127 -199 235 -293 68 -58 61 -54 142 -101 155 -90 272 -132 482 -171 73 -14 90 -12 90 9 0 15 -10 20 -47 24 -27 3 -79 13 -118 22 -38 9 -86 19 -105 22 -19 3 -37 8 -40 12 -10 13 -62 31 -90 31 -20 0 -30 5 -30 15 0 9 -12 18 -30 22 -16 3 -30 9 -30 14 0 5 -16 9 -35 9 -28 0 -35 4 -35 20 0 11 -5 20 -11 20 -6 0 -16 6 -23 13 -8 6 -24 19 -36 27 -12 8 -28 21 -36 28 -7 6 -17 12 -23 12 -6 0 -11 7 -11 15 0 8 -9 15 -20 15 -11 0 -20 7 -20 15 0 8 -7 15 -15 15 -8 0 -15 9 -15 20 0 11 -7 20 -15 20 -8 0 -15 5 -15 11 0 12 -59 92 -72 97 -5 2 -8 10 -8 18 0 8 -7 14 -15 14 -8 0 -15 9 -15 19 0 30 -11 51 -26 51 -9 0 -14 11 -14 28 0 47 -11 72 -31 72 -11 0 -19 -7 -19 -16z"></path><path id="pK0WYKaaO" d="M3492 1928 c-7 -7 -12 -17 -12 -23 0 -5 -10 -15 -22 -20 -13 -6 -27 -20 -33 -32 -5 -13 -16 -23 -24 -23 -14 0 -83 -48 -89 -62 -2 -4 -10 -8 -18 -8 -8 0 -14 -4 -14 -10 0 -5 -8 -10 -17 -10 -22 -1 -53 -23 -53 -39 0 -6 -13 -11 -30 -11 -19 0 -30 -5 -30 -14 0 -9 -16 -15 -46 -19 -26 -2 -49 -9 -53 -15 -3 -5 -22 -12 -41 -15 -19 -3 -75 -15 -124 -26 -50 -12 -103 -21 -118 -21 -22 0 -28 -5 -28 -21 0 -20 4 -21 53 -15 92 12 267 57 332 86 199 88 352 191 415 280 l21 30 -28 0 c-16 0 -34 -5 -41 -12z"></path><path id="pI1eRpE2o" d="M2560 255 c0 -24 1 -25 32 -12 46 19 48 37 4 37 -32 0 -36 -3 -36 -25z"></path><path id="pzVDBdi9U" d="M1310 186 c0 -13 28 -26 58 -26 6 0 12 9 12 20 0 16 -7 20 -35 20 -23 0 -35 -5 -35 -14z"></path><path id="pZx8ggYe2" d="M2310 180 c0 -22 20 -26 51 -10 30 16 23 30 -16 30 -28 0 -35 -4 -35 -20z"></path><path id="p7ZRZbWfC" d="M1460 156 c0 -7 10 -16 23 -20 41 -11 57 -7 57 14 0 17 -7 20 -40 20 -27 0 -40 -4 -40 -14z"></path><path id="pbkQTlJjc" d="M2150 150 c0 -21 10 -24 48 -14 36 10 27 34 -13 34 -28 0 -35 -4 -35 -20z"></path></g></g><g id="l2wt2V0XWWf8oWYYqJAZPdz" fill="rgb(63,163,250)" style="transform: none;"><g><path id="p5pZKm6qk" d="M631 2554 c-9 -34 -25 -58 -63 -95 l-51 -49 36 0 c33 0 37 3 37 25 0 20 5 25 25 25 15 0 25 6 25 14 0 8 5 16 11 18 6 2 14 27 17 56 4 42 2 52 -11 52 -9 0 -19 -17 -26 -46z"></path><path id="p19aofbIZV" d="M1400 2387 c0 -116 85 -330 185 -466 25 -34 45 -66 45 -71 0 -10 -102 -16 -192 -11 l-48 3 0 -35 c0 -26 8 -44 30 -65 17 -17 30 -34 30 -37 0 -4 -24 -5 -52 -3 -38 4 -68 15 -105 39 -95 62 -118 73 -188 86 -48 9 -107 11 -187 7 l-118 -7 0 -30 c0 -22 10 -39 38 -64 l37 -35 -60 4 c-48 3 -70 11 -110 39 -56 37 -86 55 -127 77 -16 7 -28 18 -28 23 0 13 -68 11 -72 -2 -2 -7 -36 -8 -105 -3 l-102 7 -7 53 c-7 62 11 126 56 198 17 26 30 49 30 51 0 2 14 19 30 37 17 18 30 38 30 44 0 7 7 14 15 18 8 3 15 16 15 30 0 18 6 25 23 28 18 2 22 10 25 43 l2 40 -41 -45 c-62 -69 -158 -200 -184 -250 -23 -47 -69 -166 -100 -258 -13 -39 -16 -72 -12 -118 6 -83 18 -95 215 -216 34 -21 66 -36 71 -34 4 3 52 6 106 8 53 1 91 4 84 6 -20 6 -129 119 -122 126 12 11 81 6 86 -6 3 -9 10 -7 21 7 15 19 17 19 30 3 10 -13 28 -18 70 -18 31 0 56 5 56 10 0 6 -8 10 -17 11 -13 0 -14 2 -4 6 8 3 20 -3 28 -13 8 -11 16 -18 19 -16 5 3 90 -45 143 -80 48 -32 67 -36 170 -36 l102 0 -38 41 c-20 23 -55 57 -76 74 -31 26 -35 34 -23 39 9 3 24 3 33 0 15 -6 15 -8 3 -17 -11 -8 -9 -9 9 -4 15 5 27 2 33 -6 7 -11 11 -11 15 -1 6 16 40 16 47 0 5 -10 7 -10 12 0 3 6 14 12 24 12 10 0 21 -6 24 -12 5 -10 7 -10 12 0 7 14 34 16 34 2 0 -14 47 -13 52 1 2 7 19 -1 40 -20 20 -17 39 -31 43 -31 4 0 33 -17 64 -37 56 -38 56 -38 169 -40 l114 -2 -38 42 c-21 23 -51 53 -67 66 -15 13 -25 26 -22 29 10 10 90 1 98 -11 6 -9 10 -9 14 1 6 16 40 16 47 0 5 -10 7 -10 12 0 7 14 34 16 34 2 0 -5 11 -10 25 -10 14 0 25 5 25 10 0 6 -7 10 -15 10 -8 0 -15 4 -15 9 0 5 -8 17 -17 27 -37 37 32 1 127 -65 141 -99 149 -103 207 -108 54 -4 54 -4 35 15 -11 11 -31 23 -44 27 -12 4 -72 34 -131 66 -59 32 -112 59 -117 59 -6 0 -10 4 -10 8 0 4 -34 32 -75 61 -41 30 -112 92 -158 140 -160 166 -248 339 -282 554 -4 23 -11 37 -20 37 -11 0 -15 -13 -15 -53z m-1139 -685 c-15 -4 -31 15 -31 37 0 9 8 6 23 -10 16 -18 18 -25 8 -27z"></path><path id="pkq1vkymP" d="M1610 2020 c12 -16 24 -30 26 -30 3 0 -4 14 -16 30 -12 17 -24 30 -26 30 -3 0 4 -13 16 -30z"></path><path id="pccChYKoJ" d="M1660 1953 c13 -18 26 -30 29 -28 3 3 -8 18 -23 33 l-29 27 23 -32z"></path><path id="pGwhvvBVZ" d="M1724 1883 c16 -18 32 -31 34 -28 3 3 3 6 1 8 -2 1 -17 13 -34 27 l-30 25 29 -32z"></path><path id="pOz6stOmD" d="M1770 1837 c0 -2 15 -14 33 -27 l32 -23 -24 26 c-21 23 -41 35 -41 24z"></path><path id="pAtlVzCJ6" d="M3457 1685 c-18 -13 -24 -31 -7 -20 6 3 10 1 10 -4 0 -6 -4 -11 -10 -11 -15 0 -12 -19 5 -37 19 -18 23 -15 34 24 11 39 -7 67 -32 48z"></path><path id="p194V8VTJi" d="M3345 1635 c-6 -8 -16 -15 -23 -17 -8 -2 -30 -18 -50 -35 -35 -32 -35 -33 -16 -48 10 -9 28 -20 39 -25 11 -6 34 -19 52 -30 18 -10 35 -15 38 -11 3 5 14 7 25 4 33 -9 66 5 78 33 10 22 9 30 -8 53 -42 60 -118 102 -135 76z"></path><path id="pm8t5q3A" d="M350 814 c0 -10 50 -82 82 -118 20 -23 40 -37 50 -35 13 3 -1 23 -57 80 -41 42 -75 75 -75 73z"></path><path id="pN5KTP452" d="M3248 731 c-46 -50 -115 -114 -153 -143 -68 -52 -69 -53 -40 -56 18 -2 33 2 41 12 6 9 14 16 19 16 14 0 65 55 65 71 0 9 11 19 24 23 12 3 36 24 51 46 15 22 31 40 36 40 4 0 11 9 14 20 3 11 13 27 22 35 8 9 13 18 11 21 -3 2 -43 -36 -90 -85z"></path></g></g><g id="l50XZr9GT98t0LvLeJusmRB" fill="rgb(67,171,251)" style="transform: none;"><g><path id="p178qb854R" d="M640 2609 c0 -69 -22 -110 -90 -169 -110 -95 -264 -302 -306 -412 -16 -40 -27 -76 -26 -80 1 -3 4 -20 7 -37 3 -17 7 -46 11 -63 5 -33 21 -51 36 -42 4 3 8 1 8 -4 0 -19 45 -22 58 -5 11 16 13 15 28 -3 11 -13 17 -15 20 -7 4 9 11 10 25 3 12 -7 26 -7 37 -2 28 16 98 6 130 -17 17 -11 33 -21 36 -21 3 0 28 -15 54 -33 63 -45 66 -46 178 -48 99 -2 121 6 90 33 -84 72 -107 98 -88 98 11 0 22 -6 25 -12 3 -10 7 -10 20 1 9 7 24 10 33 7 9 -4 23 -1 32 6 12 10 16 10 19 1 3 -7 11 -13 18 -13 7 0 15 6 18 13 3 8 9 6 20 -8 12 -15 18 -17 29 -8 9 8 19 9 28 3 8 -5 22 -7 31 -4 17 5 33 -4 139 -74 54 -36 58 -37 168 -40 62 -2 112 0 112 5 0 5 -20 28 -45 51 -29 27 -43 47 -39 57 7 18 16 19 33 3 10 -11 15 -9 27 6 14 20 14 20 28 0 15 -19 15 -19 29 0 14 19 14 19 26 0 10 -18 12 -18 24 -2 13 16 15 16 30 1 21 -21 35 -8 19 17 -15 24 -15 33 -2 25 13 -8 35 5 23 14 -26 18 -124 168 -170 259 -62 122 -92 224 -94 323 -2 62 -4 69 -22 69 -19 0 -20 -4 -14 -102 9 -132 31 -213 87 -319 23 -43 40 -93 29 -81 -19 18 -79 16 -79 -3 0 -12 -14 -15 -69 -15 -40 0 -71 5 -73 10 -2 6 -29 14 -61 17 l-57 6 0 -37 c0 -30 7 -44 36 -72 l37 -34 -52 0 c-28 0 -51 5 -51 10 0 6 -8 10 -18 10 -10 0 -51 20 -92 45 -41 24 -80 45 -86 45 -6 0 -17 7 -24 15 -17 20 -76 20 -84 -1 -5 -13 -18 -15 -78 -10 -40 3 -94 8 -120 11 l-48 7 0 -35 c0 -26 8 -44 31 -66 l31 -31 -41 0 c-22 0 -43 5 -46 10 -3 6 -17 10 -31 10 -14 0 -40 11 -57 24 -18 13 -56 36 -85 51 -29 15 -61 40 -72 55 -17 23 -18 32 -7 59 6 17 15 31 19 31 4 0 8 4 8 10 0 5 11 20 25 34 14 14 25 34 25 46 0 11 7 20 15 20 8 0 15 8 15 18 0 9 10 22 23 27 12 6 23 20 25 31 2 12 12 24 23 27 11 3 23 15 26 26 3 12 11 21 17 21 13 0 46 36 46 50 0 6 9 10 20 10 13 0 20 7 20 19 0 10 9 21 19 24 21 5 41 78 41 147 0 33 -3 40 -20 40 -17 0 -20 -7 -20 -51z"></path><path id="pcF1Y3OfQ" d="M195 1763 c13 -99 6 -93 90 -93 41 0 75 2 75 5 0 16 -134 135 -151 135 -18 0 -20 -5 -14 -47z"></path><path id="pNaFRYY3O" d="M3240 718 c-36 -39 -98 -95 -137 -125 -40 -31 -73 -59 -73 -64 0 -5 11 -9 24 -9 32 0 222 186 257 252 18 34 -6 16 -71 -54z"></path><path id="pXi7aBnTF" d="M381 758 c7 -12 65 -75 129 -140 91 -91 123 -118 144 -118 44 0 29 22 -59 88 -46 35 -113 93 -150 128 -36 35 -68 64 -71 64 -2 0 1 -10 7 -22z"></path></g></g><g id="l3Ub8iR1PJNCsMUmHyM78NP" fill="rgb(88,185,225)" style="transform: none;"><g><path id="ptaMda1pp" d="M410 3204 c-8 -1 -36 -5 -61 -9 -26 -3 -54 -12 -64 -19 -15 -11 -10 -16 49 -44 124 -59 207 -133 253 -227 32 -64 43 -105 52 -206 12 -127 2 -175 -51 -225 -84 -81 -140 -140 -149 -156 -8 -15 -5 -18 16 -18 19 0 51 22 111 78 46 42 84 83 84 90 0 6 8 20 19 31 51 51 25 303 -45 442 -32 64 -108 142 -178 183 -57 34 -58 35 -31 42 48 12 197 -4 289 -31 137 -40 300 -123 423 -216 111 -85 156 -108 208 -109 l31 0 -3 -117 c-1 -65 -8 -128 -14 -140 -14 -26 -4 -120 16 -146 15 -21 62 -19 57 2 -2 12 13 193 23 271 6 45 25 111 40 141 8 15 15 31 15 35 0 4 -31 4 -68 1 -97 -8 -132 3 -220 70 -155 119 -258 174 -433 233 -117 39 -294 61 -369 44z"></path><path id="pCuRuRh65" d="M2290 176 c0 -23 2 -24 32 -15 18 5 34 9 35 9 2 0 3 7 3 15 0 10 -11 15 -35 15 -30 0 -35 -3 -35 -24z"></path></g></g><g id="l2ZSwMiYseg0TqPPm48ZaAF" fill="rgb(74,180,252)" style="transform: none;"><g><path id="pD4Tt6QFq" d="M663 2598 c-4 -46 -13 -69 -26 -62 -7 4 -9 3 -4 -1 4 -5 -5 -22 -20 -39 -18 -20 -21 -26 -8 -17 11 7 2 -3 -19 -23 -39 -36 -39 -36 -13 -36 58 0 107 80 107 175 0 31 -15 33 -17 3z"></path><path id="p9YVXq7Zj" d="M1383 2344 c5 -94 11 -120 32 -160 26 -49 29 -84 9 -91 -7 -2 -18 2 -25 9 -8 7 -27 20 -44 28 -16 8 -37 23 -47 33 -15 14 -37 17 -125 17 -60 0 -138 3 -175 7 l-68 6 0 -29 c0 -39 10 -74 21 -74 10 0 49 -37 49 -46 0 -12 -96 3 -128 19 -18 10 -45 24 -61 32 -16 9 -34 22 -41 30 -7 8 -18 15 -24 15 -6 1 -24 12 -40 25 -29 23 -34 24 -148 18 l-118 -6 0 56 c0 44 3 57 15 57 10 0 15 10 15 30 0 26 -2 29 -17 19 -32 -20 -170 -206 -196 -265 l-18 -40 34 -38 c19 -20 57 -49 83 -63 27 -14 68 -39 91 -55 23 -17 46 -27 53 -23 6 4 17 2 24 -4 18 -15 186 -20 186 -5 0 6 -22 35 -50 64 -51 55 -58 70 -22 51 12 -6 62 -11 113 -12 75 -1 95 2 105 15 10 14 13 15 24 1 7 -8 17 -15 23 -15 6 0 48 -23 94 -50 46 -28 88 -48 93 -45 4 3 10 0 12 -6 2 -7 41 -12 111 -13 l106 -2 -22 26 c-12 14 -41 44 -66 68 -44 43 -50 63 -13 43 11 -6 22 -7 26 -4 3 3 6 1 6 -5 0 -8 30 -12 100 -12 78 0 100 3 100 14 0 9 24 1 76 -26 73 -39 76 -39 69 -17 -4 13 -16 35 -25 49 -16 23 -44 79 -105 215 -24 53 -43 127 -47 185 -2 21 -13 46 -27 60 l-24 25 6 -111z m-980 -275 c23 -25 22 -29 -12 -29 -24 0 -29 5 -33 29 -3 23 -1 28 11 23 9 -3 24 -13 34 -23z"></path><path id="p1151Bshvn" d="M491 634 c75 -76 203 -182 270 -222 49 -29 81 -29 77 0 -2 15 -29 37 -93 74 -49 29 -93 50 -99 47 -5 -3 -6 -1 -2 5 8 13 -28 35 -39 24 -5 -4 -5 -2 -2 4 4 7 -9 24 -30 40 -20 15 -33 21 -29 13 4 -8 0 -5 -9 6 -9 11 -21 19 -26 17 -6 -1 -8 2 -5 6 7 12 -28 44 -37 35 -4 -3 -7 1 -7 10 0 11 -8 17 -22 17 -17 0 -7 -14 53 -76z"></path><path id="pGEFW58oO" d="M3225 700 c-11 -5 -16 -9 -12 -9 10 -1 -64 -76 -74 -76 -4 0 -17 -11 -29 -25 -12 -14 -19 -18 -15 -10 4 8 -3 4 -14 -10 -11 -14 -21 -21 -21 -17 0 4 -25 -9 -56 -28 -44 -29 -59 -34 -65 -23 -6 9 -9 7 -9 -9 0 -19 -6 -23 -31 -23 -20 0 -28 -4 -23 -12 5 -8 2 -9 -9 -5 -9 3 -23 0 -31 -8 -8 -8 -19 -15 -25 -15 -6 0 -11 -4 -11 -10 0 -5 -9 -10 -20 -10 -16 0 -20 -7 -20 -35 0 -29 4 -35 21 -35 23 0 144 65 156 83 5 7 24 20 43 30 61 31 251 203 263 240 4 9 5 17 4 16 -1 0 -11 -4 -22 -9z"></path></g></g><g id="l2YQ0NsoL09kokQIx8dvs0o" fill="rgb(100,167,246)" style="transform: none;"><g><path id="pRINXbw29" d="M387 763 c-4 -6 2 -18 12 -27 14 -13 21 -14 27 -5 4 8 3 10 -5 5 -7 -4 -14 2 -19 15 -5 13 -12 18 -15 12z"></path><path id="pCcegJ6wE" d="M470 687 c0 -2 15 -16 33 -33 l32 -29 -29 33 c-28 30 -36 37 -36 29z"></path><path id="pMV3UuxWn" d="M3220 671 c-8 -6 -17 -8 -21 -5 -4 2 -11 -1 -15 -7 -4 -8 -3 -9 4 -5 21 13 13 -7 -15 -36 -15 -15 -25 -28 -22 -28 3 0 24 20 48 45 44 46 47 52 21 36z"></path><path id="pdkkMfDTY" d="M900 631 c0 -6 9 -16 20 -23 11 -7 20 -16 20 -19 0 -4 -38 -6 -84 -5 -97 1 -112 -7 -96 -49 9 -25 28 -45 78 -86 7 -6 11 -13 9 -16 -7 -6 -175 94 -225 135 -24 19 -45 32 -48 29 -3 -2 14 -19 38 -36 23 -17 38 -31 34 -31 -15 0 -86 62 -81 70 3 4 -2 13 -10 20 -13 11 -14 10 -9 -5 7 -16 5 -16 -22 1 -37 23 51 -66 116 -118 109 -87 287 -190 349 -202 19 -3 39 -13 45 -20 17 -22 116 -59 116 -43 0 8 14 11 45 9 l45 -4 0 35 c0 33 -4 37 -56 64 -54 27 -55 28 -27 33 19 4 29 12 31 28 3 21 8 22 82 22 63 0 86 -4 116 -22 35 -20 52 -22 216 -24 l178 -2 0 24 c0 23 3 24 75 24 58 0 86 -5 130 -25 49 -23 66 -25 177 -24 68 0 144 -2 171 -6 l47 -8 0 32 0 31 73 0 c98 0 151 -28 155 -83 3 -35 5 -37 37 -37 18 0 35 -5 37 -10 5 -17 210 94 314 170 80 60 122 102 106 107 -6 3 -9 10 -6 15 4 7 2 8 -5 4 -6 -4 -9 -11 -6 -15 5 -9 -19 -33 -45 -45 -9 -5 -8 -2 3 7 37 31 14 26 -39 -8 -31 -20 -58 -34 -60 -32 -9 9 9 37 27 42 26 8 24 23 -6 51 -56 52 -63 54 -189 54 -115 0 -118 -1 -103 -18 32 -35 21 -39 -93 -34 -80 3 -114 1 -125 -8 -13 -11 -28 -7 -88 24 -72 36 -74 37 -184 35 -110 -3 -110 -3 -92 -23 11 -11 19 -22 19 -25 0 -3 -66 -6 -148 -6 -138 0 -150 2 -197 26 -44 23 -63 26 -164 28 l-114 2 16 -25 c10 -14 17 -27 17 -28 0 -2 -66 -3 -148 -2 -137 0 -150 2 -197 26 -44 22 -64 26 -162 27 -74 2 -113 -1 -113 -8z"></path><path id="pyYslFe15" d="M3129 615 c-1 -3 -2 -8 -3 -12 -1 -5 -5 -13 -9 -20 -4 -6 -3 -14 3 -18 12 -7 11 -8 14 28 3 23 -1 38 -5 22z"></path><path id="pl4AmjIhw" d="M2450 281 c0 -22 -4 -43 -10 -46 -6 -4 -10 5 -10 19 0 23 -4 26 -35 26 -33 0 -35 -2 -35 -35 0 -19 5 -35 10 -35 6 0 10 -7 10 -15 0 -21 22 -18 114 13 73 25 110 52 72 52 -11 0 -16 9 -16 30 0 29 -1 30 -50 30 l-50 0 0 -39z"></path><path id="pGDrUOuNd" d="M1280 197 c0 -8 25 -21 60 -30 76 -21 80 -21 80 3 0 16 -7 20 -35 20 -19 0 -35 5 -35 10 0 6 -16 10 -35 10 -23 0 -35 -5 -35 -13z"></path><path id="p34ShZBAy" d="M1520 146 c0 -13 28 -26 58 -26 6 0 12 9 12 20 0 16 -7 20 -35 20 -23 0 -35 -5 -35 -14z"></path><path id="p1G2cZkyrl" d="M1630 136 c0 -13 28 -26 58 -26 6 0 12 9 12 20 0 16 -7 20 -35 20 -23 0 -35 -5 -35 -14z"></path><path id="pLC9MCVTs" d="M1980 130 c0 -21 10 -24 48 -14 36 10 27 34 -13 34 -28 0 -35 -4 -35 -20z"></path></g></g><g id="l2JZxRVl5vhISsLGmjbkHT8" fill="rgb(134,173,206)" style="transform: none;"><g><path id="p131ILWBq8" d="M3399 3569 c-120 -17 -297 -97 -384 -173 l-40 -35 38 -1 c20 0 37 4 37 9 0 5 9 11 20 14 11 3 20 12 20 21 0 10 9 16 24 16 13 0 26 4 28 8 2 4 39 23 83 41 44 19 89 38 100 42 11 5 52 12 90 17 62 6 70 9 73 30 4 25 2 25 -89 11z"></path><path id="pwklXMWUW" d="M3502 3557 c3 -20 9 -22 86 -25 69 -2 82 0 82 13 0 20 -8 22 -98 29 -71 5 -73 4 -70 -17z"></path><path id="pRncKSUVq" d="M2578 3383 c-10 -2 -18 -11 -18 -19 0 -10 13 -14 45 -14 38 0 45 3 45 20 0 15 -6 20 -27 19 -16 -1 -36 -3 -45 -6z"></path><path id="pP1n31Ry1" d="M2670 3360 c0 -16 7 -20 35 -20 40 0 49 24 13 34 -38 10 -48 7 -48 -14z"></path><path id="pmj2qd4pX" d="M2385 3364 c-87 -18 -145 -38 -145 -50 0 -21 35 -18 178 12 14 3 22 12 22 24 0 20 -11 23 -55 14z"></path><path id="pXDLfKWzG" d="M2790 3350 c0 -17 7 -20 40 -20 45 0 57 23 18 34 -42 11 -58 7 -58 -14z"></path><path id="pZ7VZBVq2" d="M2880 3333 c0 -20 5 -23 45 -23 40 0 45 3 45 23 0 20 -5 22 -45 22 -40 0 -45 -2 -45 -22z"></path><path id="pXWagavD5" d="M2141 3297 c-47 -18 -86 -38 -89 -44 -5 -18 72 -17 90 0 7 8 30 17 51 21 31 6 37 11 37 31 0 14 -1 25 -2 25 -2 -1 -41 -15 -87 -33z"></path><path id="pl0eb2FtN" d="M1933 3198 c-42 -26 -42 -38 2 -38 32 0 35 2 35 30 0 17 -1 30 -2 29 -2 0 -18 -10 -35 -21z"></path><path id="pN7IzGGeI" d="M1623 2918 c-41 -45 -123 -207 -123 -244 0 -8 9 -14 19 -14 14 0 24 13 37 48 9 26 21 51 26 57 4 5 8 22 8 37 0 17 5 28 14 28 21 0 48 48 44 81 l-3 31 -22 -24z"></path><path id="p1FL5b6xN4" d="M2007 2655 c-47 -32 -68 -73 -74 -144 -6 -70 21 -138 68 -172 57 -41 219 -40 219 1 0 14 7 20 21 20 49 0 76 69 66 168 -7 61 -27 95 -77 130 -27 18 -47 22 -109 22 -65 0 -82 -4 -114 -25z m5 -102 l-4 -48 111 1 c62 1 115 4 118 8 4 4 2 26 -4 49 l-11 42 24 -28 c18 -22 24 -40 24 -78 0 -78 -37 -128 -109 -150 -46 -14 -74 -8 -122 23 -67 46 -88 140 -43 201 11 15 19 27 20 27 1 0 -1 -21 -4 -47z"></path><path id="pRKfw5UD4" d="M2502 2650 c-48 -34 -57 -50 -67 -108 -11 -68 3 -140 35 -173 15 -16 30 -29 34 -29 4 0 15 -7 23 -16 13 -13 34 -15 101 -12 57 2 87 7 90 16 2 6 10 12 17 12 8 0 26 16 42 36 22 30 28 49 31 104 5 81 -19 136 -75 175 -32 21 -49 25 -114 25 -68 0 -80 -3 -117 -30z m5 -95 c-6 -19 -8 -37 -5 -40 4 -4 149 -9 204 -6 24 1 37 39 22 65 -7 12 -5 14 6 10 18 -7 36 -56 36 -99 0 -61 -65 -131 -132 -141 -48 -8 -115 24 -145 69 -28 40 -31 116 -7 152 23 36 34 31 21 -10z"></path><path id="p4KAucpFj" d="M3009 2657 c-58 -39 -79 -81 -79 -158 0 -66 14 -119 32 -119 4 0 8 -7 8 -15 0 -8 7 -15 15 -15 8 0 15 -4 15 -8 0 -18 53 -32 116 -32 77 0 144 28 144 60 0 11 6 20 14 20 17 0 26 22 26 61 0 36 -25 39 -34 5 -16 -64 -106 -124 -168 -112 -57 11 -97 42 -119 93 -18 42 -19 53 -8 90 6 23 20 50 32 60 19 18 20 17 8 -4 -6 -12 -11 -33 -11 -47 0 -25 2 -26 63 -27 34 0 78 -2 97 -3 54 -4 73 10 68 50 -5 45 4 43 28 -6 23 -48 44 -52 44 -9 0 41 -32 93 -74 118 -50 31 -170 30 -217 -2z"></path><path id="p17MuKjt3Q" d="M1481 2596 c-16 -65 -14 -86 8 -86 20 0 31 34 31 96 0 50 -25 43 -39 -10z"></path><path id="pLTLMZ9iH" d="M1470 2396 c0 -42 41 -188 70 -254 39 -85 109 -182 189 -263 176 -175 400 -280 706 -329 79 -13 95 -12 95 8 0 14 -21 21 -123 39 -162 28 -229 45 -244 59 -7 7 -26 15 -43 19 -16 4 -32 11 -35 16 -4 5 -17 9 -30 9 -12 0 -25 6 -28 13 -3 6 -31 26 -64 42 -32 17 -62 36 -66 43 -4 6 -12 12 -17 12 -10 0 -21 10 -118 103 -33 31 -65 57 -71 57 -6 0 -11 9 -11 20 0 11 -4 20 -10 20 -5 0 -10 7 -10 15 0 9 -7 18 -15 21 -8 4 -15 12 -15 19 0 7 -3 15 -8 17 -9 4 -65 128 -85 188 -8 25 -18 69 -22 98 -6 42 -11 52 -26 52 -13 0 -19 -7 -19 -24z"></path><path id="puLjHQQvf" d="M3467 1903 c-4 -3 -7 -19 -7 -35 0 -25 -3 -28 -35 -28 -33 0 -35 -2 -35 -31 0 -28 2 -30 18 -18 40 31 98 84 110 101 12 16 10 18 -16 18 -16 0 -32 -3 -35 -7z"></path><path id="pMMSHRW6k" d="M3290 1760 c0 -5 -7 -10 -15 -10 -8 0 -15 -4 -15 -10 0 -5 -9 -10 -20 -10 -11 0 -20 -4 -20 -9 0 -5 -10 -11 -22 -14 -13 -3 -55 -19 -95 -35 -94 -40 -198 -68 -305 -84 -76 -10 -88 -15 -88 -31 0 -18 5 -19 58 -13 159 19 340 73 467 140 138 73 152 86 90 86 -19 0 -35 -4 -35 -10z"></path><path id="p14e92sO1Y" d="M1320 186 c0 -13 28 -26 58 -26 6 0 12 9 12 20 0 16 -7 20 -35 20 -23 0 -35 -5 -35 -14z"></path><path id="pUhiX64hh" d="M2300 180 c0 -15 5 -19 23 -16 12 3 28 5 35 5 6 1 12 8 12 16 0 10 -11 15 -35 15 -28 0 -35 -4 -35 -20z"></path><path id="pJq6HJ1Vu" d="M1480 156 c0 -7 10 -16 23 -20 41 -11 57 -7 57 14 0 17 -7 20 -40 20 -27 0 -40 -4 -40 -14z"></path><path id="p1Ayz5VpKE" d="M2120 146 c0 -23 2 -23 38 -15 20 5 40 9 45 9 4 0 7 7 7 15 0 11 -12 15 -45 15 -41 0 -45 -2 -45 -24z"></path></g></g><g id="l6n5Xk4GbKyPUyWaXygMSoL" fill="rgb(81,190,253)" style="transform: none;"><g><path id="pzHks0Yy5" d="M631 2510 l-31 -50 26 0 c33 0 53 25 54 68 0 45 -13 40 -49 -18z"></path><path id="pzz6esM3X" d="M1343 2473 c-8 -3 -13 -23 -13 -48 0 -40 -2 -44 -27 -47 -24 -3 -28 -8 -31 -39 -2 -28 2 -38 20 -48 13 -7 33 -26 46 -42 l24 -29 -40 0 c-37 0 -132 42 -140 62 -2 4 -8 8 -13 8 -6 0 -38 19 -72 41 -34 23 -75 46 -92 50 -16 5 -92 6 -168 3 l-137 -7 0 -41 c0 -35 6 -46 35 -71 19 -17 35 -34 35 -39 0 -5 -21 -6 -47 -2 -48 6 -140 52 -183 91 -44 39 -66 38 -104 -7 -19 -22 -47 -59 -62 -82 -16 -22 -33 -45 -39 -51 -13 -12 -55 -80 -55 -88 0 -4 6 -4 14 -1 16 6 36 -24 36 -53 0 -20 53 -50 58 -33 5 15 29 12 36 -5 3 -8 10 -15 16 -15 5 0 10 7 10 15 0 8 7 15 15 15 8 0 15 -7 15 -15 0 -22 17 -18 23 5 3 13 -9 34 -43 70 -26 27 -52 50 -57 50 -5 0 -20 11 -33 24 l-23 25 31 30 c17 17 33 31 37 31 3 0 5 -16 3 -35 -1 -19 1 -38 5 -42 8 -7 76 -9 180 -3 46 3 63 0 87 -18 16 -12 33 -22 38 -22 5 0 17 -9 27 -20 10 -11 22 -20 28 -20 5 0 21 -8 35 -19 15 -10 45 -24 67 -31 22 -7 44 -18 48 -24 6 -8 10 -7 14 2 7 17 21 15 41 -5 16 -16 17 -16 20 0 2 9 10 17 18 17 8 0 13 -4 10 -9 -10 -16 19 -18 30 -2 10 13 13 13 28 -2 20 -19 26 -21 26 -8 0 14 -117 131 -130 131 -7 0 -10 6 -7 14 3 8 1 17 -6 20 -7 2 -5 5 5 5 9 1 19 -3 22 -8 3 -5 63 -8 132 -6 106 2 129 0 143 -14 9 -9 30 -23 46 -31 17 -8 32 -18 35 -21 3 -3 28 -18 56 -34 52 -29 92 -29 81 -1 -3 8 -1 16 5 18 7 3 4 10 -5 20 -9 9 -19 31 -22 49 -3 19 -16 55 -29 80 -15 30 -26 73 -30 120 -7 75 -33 149 -51 148 -5 0 -16 -3 -22 -6z m140 -423 c-3 -11 -7 -20 -8 -20 -1 0 -5 9 -8 20 -3 12 0 20 8 20 8 0 11 -8 8 -20z"></path><path id="pDJQ05su7" d="M530 599 c275 -264 674 -440 1078 -476 l52 -5 0 36 c0 36 0 36 -45 36 -25 0 -45 -4 -45 -10 0 -5 -4 -10 -10 -10 -5 0 -10 7 -10 15 0 9 -14 16 -37 20 -65 11 -115 22 -193 44 -41 12 -93 24 -116 26 -57 5 -204 58 -306 110 -49 24 -88 41 -88 38 0 -4 -6 1 -12 10 -7 9 -19 17 -27 19 -7 2 -25 13 -39 26 -14 12 -27 20 -30 17 -3 -2 -11 3 -19 13 -10 11 -12 12 -8 2 4 -10 2 -9 -8 3 -8 9 -19 17 -24 17 -5 0 -28 17 -51 38 -23 22 -42 37 -42 35 0 -2 -12 4 -27 13 -24 14 -23 12 7 -17z"></path><path id="pvtC96nCM" d="M3086 560 c-26 -22 -52 -37 -57 -34 -5 3 -12 -1 -15 -9 -3 -9 -17 -18 -30 -21 -15 -4 -22 -11 -18 -18 4 -6 3 -8 -3 -5 -12 7 -73 -29 -73 -43 0 -6 -4 -8 -10 -5 -5 3 -10 1 -10 -4 0 -6 -3 -10 -7 -10 -21 3 -33 -2 -27 -13 4 -6 3 -8 -4 -5 -15 10 -43 -3 -35 -16 3 -5 2 -7 -4 -4 -5 3 -33 -2 -61 -13 -28 -11 -66 -21 -85 -23 -45 -5 -137 -39 -132 -48 6 -9 -24 -21 -36 -13 -11 6 -79 -14 -79 -24 0 -4 -18 -8 -40 -9 -22 -2 -49 -7 -60 -13 -10 -5 -34 -10 -53 -10 -18 0 -56 -6 -83 -14 -27 -8 -109 -17 -181 -21 l-133 -7 0 -36 0 -35 133 7 c72 4 146 11 162 16 17 5 59 13 95 18 266 39 600 185 800 350 64 53 113 104 98 102 -2 -1 -25 -19 -52 -40z"></path><path id="p15uUjFnyB" d="M1670 145 l0 -35 70 0 70 0 0 35 0 35 -70 0 -70 0 0 -35z"></path></g></g><g id="l5hkv5fgbnG78YxBx0nsS3P" fill="rgb(119,177,246)" style="transform: none;"><g><path id="pL0O45O1Z" d="M610 531 c0 -6 10 -16 23 -22 12 -7 29 -20 38 -31 9 -10 21 -18 27 -18 6 0 18 -8 28 -17 21 -22 76 -57 124 -79 19 -9 37 -20 40 -24 7 -11 153 -78 187 -86 15 -4 33 -10 38 -14 15 -12 120 -45 216 -69 86 -22 155 -33 309 -52 98 -12 459 -5 505 10 17 6 59 14 95 19 91 14 234 51 300 79 8 3 17 7 20 8 38 9 103 38 184 79 138 71 148 77 168 96 10 9 30 23 45 31 15 8 35 21 44 30 9 9 23 19 30 23 11 5 11 7 1 12 -6 3 -9 11 -5 17 3 7 2 8 -3 4 -5 -5 -9 -14 -9 -20 0 -7 -9 -12 -20 -13 -21 -1 -105 -49 -105 -60 0 -4 11 1 25 10 14 9 36 23 50 32 14 9 25 14 25 11 0 -12 -100 -68 -111 -61 -8 4 -9 3 -5 -4 4 -7 -7 -18 -26 -27 l-33 -16 25 21 c20 17 13 15 -35 -8 -67 -33 -165 -65 -165 -53 0 4 5 12 12 19 9 9 7 16 -8 33 -23 26 -86 59 -113 59 -11 0 -22 6 -24 13 -4 10 -6 10 -6 0 -1 -9 -20 -12 -63 -11 l-63 1 60 7 c56 6 54 7 -30 7 -60 0 -80 -2 -60 -7 22 -6 25 -8 10 -10 -11 -1 -24 -2 -29 -1 -5 1 -5 -4 1 -11 5 -7 13 -21 16 -30 5 -14 2 -15 -22 -7 -16 6 -79 8 -142 6 -104 -4 -119 -3 -167 19 -44 20 -69 24 -152 24 -60 0 -100 4 -100 10 0 16 -17 11 -24 -7 -4 -9 -2 -21 4 -27 5 -5 10 -12 10 -15 0 -4 -68 -5 -150 -4 -133 1 -155 4 -186 22 -19 12 -44 21 -55 21 -10 0 -19 5 -19 10 0 6 -39 10 -96 10 l-96 0 4 -32 c2 -26 -1 -33 -16 -36 -10 -2 -21 1 -25 6 -4 7 -13 6 -24 -3 -29 -21 -3 -62 61 -95 29 -16 56 -31 60 -35 19 -19 -184 48 -271 89 -31 15 -62 24 -68 20 -8 -4 -9 -3 -5 4 8 13 -25 33 -61 37 -13 1 -30 8 -36 15 -10 10 -7 10 13 1 23 -11 23 -11 7 3 -11 8 -26 12 -35 9 -10 -4 -13 -2 -8 5 7 12 -32 38 -53 33 -7 -1 -10 2 -7 8 4 5 1 13 -5 17 -8 4 -9 3 -5 -4 11 -19 -9 -14 -38 9 -14 11 -26 16 -26 10z m678 -78 c-21 -2 -57 -2 -80 0 -24 2 -7 4 37 4 44 0 63 -2 43 -4z m-158 -185 c10 -6 7 -7 -10 -2 -14 3 -32 11 -40 16 -10 6 -7 7 10 2 14 -3 32 -11 40 -16z m1380 12 c-19 -13 -30 -13 -30 0 0 6 10 10 23 10 18 0 19 -2 7 -10z m-402 -127 c-10 -2 -28 -2 -40 0 -13 2 -5 4 17 4 22 1 32 -1 23 -4z"></path><path id="p1Cd7DDjq5" d="M1788 463 c12 -2 32 -2 45 0 12 2 2 4 -23 4 -25 0 -35 -2 -22 -4z"></path><path id="peHp5TGmz" d="M1883 463 c9 -2 25 -2 35 0 9 3 1 5 -18 5 -19 0 -27 -2 -17 -5z"></path></g></g><g id="l3Cg0jHx3mLzRWQFzgAMxLv" fill="rgb(88,200,254)" style="transform: none;"><g><path id="px0Q85ksN" d="M662 2597 c-2 -60 -20 -87 -126 -190 -57 -56 -109 -113 -116 -127 l-13 -25 30 28 c35 32 44 33 68 7 25 -28 110 -75 165 -93 25 -7 74 -13 110 -13 81 1 82 14 4 90 -29 30 -54 58 -54 64 0 5 35 10 78 11 42 2 94 4 114 6 21 2 40 -1 44 -6 3 -5 10 -7 15 -3 5 3 41 -15 79 -40 38 -25 74 -46 80 -46 5 0 10 -4 10 -9 0 -5 9 -12 19 -16 11 -3 36 -17 57 -31 26 -18 44 -24 61 -19 15 3 32 0 41 -7 10 -9 16 -10 19 -2 2 6 15 9 28 6 22 -4 25 -1 25 25 0 33 -42 94 -77 114 -26 14 -20 33 8 26 10 -3 22 0 27 7 13 15 21 67 11 60 -5 -3 -9 2 -9 10 0 9 5 16 11 16 8 0 10 14 6 40 -3 22 -1 43 4 46 5 3 9 13 9 23 0 14 -10 20 -37 25 -112 18 -123 18 -123 7 0 -7 -28 -11 -85 -11 l-85 0 0 -48 c0 -39 5 -53 25 -72 14 -13 25 -29 25 -37 0 -15 -56 -18 -65 -3 -3 6 -15 10 -25 10 -10 0 -20 3 -22 8 -2 4 -37 27 -78 51 -41 24 -86 51 -100 61 -14 9 -37 20 -52 23 -15 4 -36 21 -48 37 -30 41 -56 40 -58 -3z"></path><path id="pUBTxGJKK" d="M610 536 c0 -3 49 -43 115 -93 99 -75 329 -189 455 -224 19 -6 44 -14 55 -19 30 -14 178 -47 295 -66 144 -24 471 -24 625 0 140 21 325 68 400 101 17 7 41 16 55 20 42 13 171 76 240 118 88 53 192 128 187 134 -3 2 -42 -20 -88 -50 -185 -120 -412 -215 -629 -261 -41 -9 -95 -21 -120 -27 -78 -19 -110 -22 -310 -23 -194 -1 -346 8 -404 25 -17 5 -44 9 -60 9 -30 0 -44 4 -247 69 -186 59 -354 144 -541 273 -16 10 -28 17 -28 14z"></path></g></g><g id="l6ywDxgKJQuy3VDNoxqqcnZ" fill="rgb(178,184,189)" style="transform: none;"><g><path id="p1227VmUT2" d="M3448 3566 c-29 -22 -21 -26 47 -26 68 0 76 4 48 26 -23 17 -73 17 -95 0z"></path><path id="pgmc2pwJU" d="M3628 3563 c-10 -2 -18 -11 -18 -19 0 -8 -7 -14 -15 -14 -18 0 -83 -40 -137 -83 -62 -50 -80 -96 -86 -220 l-5 -108 77 -77 c42 -43 83 -89 92 -102 10 -14 22 -30 28 -35 35 -33 120 -213 141 -302 21 -87 17 -231 -9 -313 -28 -88 -85 -200 -138 -269 -35 -47 -48 -73 -48 -98 0 -44 7 -39 75 51 61 82 123 200 151 291 29 92 27 326 -3 413 -55 158 -112 248 -241 381 l-84 86 4 80 c6 107 29 151 110 208 35 24 81 50 103 58 34 13 40 19 40 44 0 30 -8 36 -37 28z"></path><path id="p16dormeEU" d="M3238 3519 c-29 -16 -21 -29 17 -29 28 0 35 4 35 20 0 22 -24 26 -52 9z"></path><path id="p87PKF8z0" d="M3105 3457 c-22 -11 -44 -26 -50 -33 -5 -6 -35 -28 -65 -48 -38 -26 -60 -35 -75 -31 -11 4 -39 10 -62 14 -40 7 -43 6 -43 -14 0 -20 6 -23 79 -29 84 -7 111 -2 111 20 0 8 9 14 20 14 15 0 20 7 20 25 0 21 5 25 29 25 16 0 36 7 45 15 8 8 22 15 30 15 10 0 16 9 16 25 0 30 -3 30 -55 2z"></path><path id="pSr3d6Ll5" d="M2590 3384 c-75 -12 -90 -17 -90 -28 0 -9 29 -12 115 -12 83 0 115 3 115 12 0 7 -21 17 -47 22 -46 10 -59 11 -93 6z"></path><path id="pKqsmTVKa" d="M2400 3360 c-8 -5 -23 -7 -32 -4 -17 5 -58 -15 -58 -28 0 -9 101 -11 124 -2 22 8 21 44 -1 44 -10 0 -25 -5 -33 -10z"></path><path id="py2gTpim" d="M2260 3333 c-62 -10 -237 -84 -325 -136 -117 -69 -242 -181 -305 -272 l-31 -45 28 0 c22 0 38 12 73 55 25 31 77 82 115 115 39 33 77 66 87 74 9 8 25 17 37 21 12 3 21 13 21 21 0 8 7 14 17 14 21 0 123 50 123 60 0 4 15 10 33 13 17 3 60 14 95 24 53 15 62 21 62 40 0 13 -1 22 -2 22 -2 -1 -14 -4 -28 -6z"></path></g></g><g id="l5wwYrEjFmt0thlftenhHH0" fill="rgb(97,210,254)" style="transform: none;"><g><path id="pq6vYnoWI" d="M1180 2901 c0 -26 4 -31 25 -31 18 0 25 -5 25 -19 0 -14 13 -24 50 -36 49 -16 50 -17 50 -59 0 -23 4 -46 8 -51 5 -6 1 -24 -8 -42 l-17 -32 -66 45 c-37 24 -71 44 -76 44 -6 0 -14 6 -18 14 -18 32 -315 43 -335 12 -4 -6 -8 -26 -8 -45 0 -27 8 -41 43 -72 l42 -38 -53 -1 c-29 0 -63 5 -75 11 -29 16 -56 50 -57 71 0 9 -4 20 -10 23 -5 3 -10 21 -10 38 0 55 -10 77 -35 77 -22 0 -22 -1 -9 -52 8 -29 14 -73 14 -98 0 -46 18 -83 58 -121 12 -11 28 -19 35 -17 6 1 23 -5 37 -13 14 -9 59 -36 100 -60 41 -24 77 -47 78 -51 2 -5 12 -8 22 -8 10 0 22 -4 25 -10 8 -12 185 -13 185 -1 0 5 -25 35 -55 68 -30 32 -55 66 -55 76 0 16 8 18 63 17 104 -3 119 -1 111 12 -5 7 -3 8 7 2 8 -4 21 -10 29 -11 51 -9 81 -9 86 -2 3 5 7 53 9 107 4 132 14 182 34 183 9 1 -16 5 -55 9 -73 8 -106 21 -161 66 l-33 27 0 -32z"></path><path id="pZ7fKgHe3" d="M594 2457 c-49 -37 -138 -127 -132 -133 4 -3 30 11 58 30 29 20 56 36 61 36 5 0 9 8 9 17 0 9 10 27 22 40 29 31 19 38 -18 10z"></path><path id="p1F874Ym1x" d="M2900 418 c-121 -74 -345 -169 -495 -209 -129 -35 -210 -49 -384 -66 -276 -28 -532 0 -821 89 -118 37 -256 97 -363 160 -71 41 -107 48 -40 7 21 -13 40 -25 43 -29 14 -15 232 -115 275 -126 17 -4 32 -10 35 -14 3 -4 25 -12 50 -19 25 -7 79 -21 120 -32 99 -27 225 -47 387 -60 259 -22 626 27 828 111 11 5 31 12 45 16 28 7 105 39 133 55 10 5 44 23 75 40 56 29 86 47 106 62 6 4 20 14 31 22 30 22 14 18 -25 -7z"></path></g></g><g id="lZwW1efxosCZSQ94zsZM1h" fill="rgb(102,218,254)" style="transform: none;"><g><path id="pDzzYnkSP" d="M368 3193 c-9 -2 -19 -12 -21 -21 -4 -16 -5 -16 -6 0 -1 12 -7 16 -18 12 -10 -3 -25 -8 -33 -11 -9 -3 5 -15 40 -33 68 -36 70 -36 70 -5 0 23 3 25 50 25 43 0 50 3 50 20 0 18 -6 20 -57 19 -32 -1 -66 -3 -75 -6z"></path><path id="p1GlGNBibT" d="M790 3125 c0 -22 4 -25 36 -25 44 0 42 18 -4 37 -31 13 -32 12 -32 -12z"></path><path id="pQwAJjL8n" d="M880 3088 c0 -19 17 -32 88 -68 48 -25 91 -51 95 -57 4 -7 14 -13 21 -13 8 0 16 -7 20 -15 3 -8 12 -15 20 -15 7 0 16 -7 20 -15 3 -8 12 -15 21 -15 11 0 15 -10 15 -35 0 -28 4 -35 20 -35 11 0 20 -7 20 -15 0 -8 6 -15 13 -15 6 0 20 -11 29 -24 17 -24 17 -24 -17 -28 -22 -3 -35 0 -35 8 0 6 -16 14 -36 17 -20 4 -78 35 -135 73 -91 61 -102 66 -144 62 -25 -2 -45 0 -45 4 0 5 -23 8 -51 8 l-52 0 7 -62 c4 -35 10 -87 15 -115 6 -40 4 -53 -5 -53 -16 0 -77 108 -98 175 -24 73 -37 95 -58 95 -13 0 -18 8 -18 30 0 27 -3 30 -31 30 l-31 0 24 -32 c50 -65 108 -214 108 -275 0 -17 5 -35 10 -38 6 -3 10 -14 10 -23 1 -34 78 -99 105 -88 8 3 17 1 20 -4 4 -6 15 -10 26 -10 11 0 17 5 14 10 -3 6 1 10 10 10 9 0 13 -4 10 -10 -3 -5 3 -10 14 -10 10 0 22 6 24 13 5 12 21 -2 30 -28 7 -16 18 1 23 33 4 25 -3 36 -56 85 -40 38 -58 61 -54 71 7 19 54 22 54 4 0 -10 2 -10 8 0 16 25 206 13 216 -14 3 -8 10 -14 15 -14 6 0 45 -22 87 -50 98 -64 105 -64 136 0 27 56 30 76 13 90 -21 17 -19 42 5 73 26 33 25 40 -4 33 -40 -10 -98 18 -199 98 -95 74 -185 130 -260 161 -36 15 -37 15 -37 -7z"></path><path id="pz1Tj63U9" d="M582 2443 c-7 -2 -17 -14 -23 -26 -11 -21 -10 -20 15 2 14 14 26 26 26 28 0 3 0 3 -18 -4z"></path><path id="p1GycoogUJ" d="M972 307 c17 -17 87 -41 95 -33 4 3 0 6 -8 6 -8 0 -32 9 -54 20 -46 24 -51 25 -33 7z"></path><path id="p15G9Tegsk" d="M2680 303 c-19 -9 -48 -22 -65 -28 -16 -7 -41 -17 -55 -24 -24 -11 -24 -11 7 -5 17 3 48 14 69 25 21 10 43 19 49 19 5 0 19 7 29 15 25 19 10 18 -34 -2z"></path><path id="poEgSR3gW" d="M1100 250 c34 -11 60 -11 35 0 -11 5 -29 8 -40 8 -16 0 -15 -2 5 -8z"></path><path id="pZTGF5n2y" d="M2485 224 l-40 -13 40 5 c40 6 52 11 44 18 -2 2 -22 -3 -44 -10z"></path><path id="p1Cq0VLHHn" d="M1200 215 c25 -7 58 -18 73 -24 16 -6 38 -11 50 -10 12 0 -14 11 -57 25 -44 13 -87 24 -95 23 -9 0 4 -7 29 -14z"></path><path id="pOEg7rDWT" d="M2370 195 c-25 -7 -80 -20 -123 -30 -43 -9 -77 -19 -75 -21 9 -8 249 43 263 57 12 12 -8 10 -65 -6z"></path><path id="pdBLTvdBP" d="M1380 168 c60 -16 114 -27 130 -27 8 1 -16 9 -55 20 -38 10 -79 18 -90 18 -11 -1 -5 -5 15 -11z"></path><path id="p9jgWulhr" d="M1555 140 c31 -8 112 -13 104 -6 -2 2 -33 6 -69 9 -41 3 -54 2 -35 -3z"></path><path id="p1D0CEuAli" d="M2043 133 c9 -2 25 -2 35 0 9 3 1 5 -18 5 -19 0 -27 -2 -17 -5z"></path><path id="pw7xWApHg" d="M1858 113 c12 -2 30 -2 40 0 9 3 -1 5 -23 4 -22 0 -30 -2 -17 -4z"></path></g></g><g id="l4WjC5XHrAnkI8jLJY9xJAJ" fill="rgb(111,225,253)" style="transform: none;"><g><path id="pgD6k9UzG" d="M372 3190 c-82 -9 -93 -21 -45 -46 70 -35 148 -86 182 -118 49 -46 105 -134 125 -196 10 -30 33 -83 52 -117 36 -65 72 -86 111 -65 10 6 22 10 26 10 13 0 22 12 10 12 -16 0 -33 71 -37 153 0 15 -4 27 -8 27 -5 0 -8 7 -8 15 0 8 9 15 20 15 13 0 18 -5 14 -15 -8 -19 47 -21 75 -3 16 10 33 2 118 -55 54 -37 117 -71 138 -76 22 -5 34 -9 27 -10 -7 -1 -10 -6 -7 -11 4 -6 31 -10 62 -9 38 2 58 -2 64 -12 5 -9 9 -10 9 -2 0 6 9 14 20 18 26 8 21 37 -14 74 -25 26 -26 30 -11 45 15 15 15 17 -2 23 -10 4 -65 43 -122 87 -124 95 -327 202 -451 236 -91 25 -228 33 -348 20z m373 -73 c87 -29 235 -107 235 -124 0 -7 7 -25 16 -38 16 -25 16 -25 -16 -25 -37 0 -123 40 -160 75 -14 13 -39 31 -56 42 -45 26 -144 94 -144 99 0 6 63 -8 125 -29z m-210 -47 c3 -5 -3 -10 -14 -10 -12 0 -21 5 -21 10 0 6 6 10 14 10 8 0 18 -4 21 -10z m97 -107 c16 -24 27 -43 24 -43 -3 0 -18 18 -32 40 -15 23 -35 40 -45 40 -13 0 -19 7 -19 22 0 21 0 21 21 2 12 -10 35 -38 51 -61z"></path><path id="pcIF3hh3R" d="M1508 143 c12 -2 30 -2 40 0 9 3 -1 5 -23 4 -22 0 -30 -2 -17 -4z"></path><path id="p1FJlaTesj" d="M2148 143 c12 -2 30 -2 40 0 9 3 -1 5 -23 4 -22 0 -30 -2 -17 -4z"></path><path id="pNhspnbeC" d="M1808 113 c12 -2 32 -2 45 0 12 2 2 4 -23 4 -25 0 -35 -2 -22 -4z"></path></g></g><g id="l3pLEdxCdauvvCpkKSLBpk5" fill="rgb(120,236,254)" style="transform: none;"><g><path id="p1EX7ugj8Q" d="M511 3190 c-10 -5 -9 -9 4 -14 9 -3 14 -10 10 -15 -3 -5 5 -13 17 -17 13 -4 41 -21 63 -39 44 -34 81 -60 129 -88 17 -11 42 -29 56 -42 51 -48 123 -75 198 -75 39 0 74 4 77 10 3 5 -8 30 -25 55 -17 25 -29 45 -26 45 12 0 62 -25 68 -35 5 -6 8 -6 8 1 0 7 -11 19 -25 28 -14 9 -25 13 -25 9 0 -5 -4 -3 -8 4 -9 14 -169 98 -236 124 -81 30 -264 62 -285 49z"></path><path id="pVmP6Kkwv" d="M335 3180 c-16 -3 -29 -10 -29 -15 1 -6 28 -23 60 -38 96 -47 190 -132 241 -218 11 -18 23 -27 32 -24 14 6 81 -34 81 -47 0 -5 7 -8 15 -8 18 0 19 23 4 53 -20 36 -115 161 -146 189 -59 56 -207 118 -258 108z"></path></g></g><g id="l7CAam3Xr9iVhtStLJd9SKu" fill="rgb(190,209,226)" style="transform: none;"><g><path id="p1BVWT6G1S" d="M3385 3559 c-38 -5 -83 -15 -100 -23 -16 -8 -41 -17 -55 -21 -41 -12 -151 -75 -219 -127 -62 -47 -66 -48 -115 -42 -28 4 -58 10 -66 14 -8 4 -69 11 -135 14 -237 12 -463 -34 -670 -136 -89 -44 -131 -67 -154 -86 -144 -115 -275 -258 -311 -337 -61 -134 -76 -189 -87 -322 -9 -105 29 -269 89 -387 73 -144 229 -300 393 -392 155 -88 257 -123 446 -154 155 -25 169 -25 169 -2 0 16 -14 21 -102 31 -57 7 -136 22 -176 33 -83 22 -234 81 -265 103 -12 8 -29 15 -39 15 -10 0 -18 4 -18 8 0 7 -62 52 -119 87 -9 6 -20 16 -24 23 -4 6 -24 12 -42 12 -32 0 -35 2 -35 30 0 20 -5 30 -15 30 -8 0 -15 8 -15 18 0 25 -31 52 -58 52 -18 0 -22 6 -22 31 0 17 -14 56 -31 85 -101 177 -124 369 -64 545 28 82 74 168 117 219 95 111 122 140 135 140 7 0 13 4 13 8 0 5 26 26 58 48 31 21 59 41 62 44 13 13 52 30 69 30 11 0 21 6 23 13 4 9 149 13 671 15 l667 3 0 -37 c0 -32 10 -46 95 -130 52 -52 99 -94 105 -94 5 0 10 -9 10 -19 0 -11 3 -21 8 -23 4 -1 18 -24 32 -50 18 -36 30 -48 47 -48 28 0 28 0 -2 58 -45 84 -62 106 -174 223 l-84 88 5 78 c9 119 42 169 163 245 22 14 52 28 68 32 20 5 27 12 27 31 0 22 -4 25 -37 25 -21 0 -67 2 -103 4 -36 3 -96 0 -135 -5z"></path><path id="paM4LYAjm" d="M3673 2723 c4 -21 12 -64 19 -95 11 -50 15 -58 35 -58 20 0 23 4 17 28 -13 55 -33 121 -44 141 -18 34 -33 25 -27 -16z"></path><path id="pvFUpvYKg" d="M2050 2680 c-18 -4 -39 -15 -46 -24 -6 -9 -16 -16 -22 -16 -5 0 -19 -16 -31 -36 -29 -49 -29 -158 -1 -214 11 -22 25 -40 30 -40 6 0 19 -9 30 -20 24 -24 100 -29 100 -6 0 8 -12 17 -27 21 -71 17 -131 105 -117 169 17 82 78 136 152 136 149 0 217 -185 101 -273 -19 -14 -46 -29 -61 -32 -16 -4 -28 -13 -28 -21 0 -24 71 -17 113 11 54 37 71 77 72 161 0 123 -49 179 -165 188 -36 3 -81 1 -100 -4z"></path><path id="psXBZAR9m" d="M2547 2680 c-44 -8 -84 -42 -103 -87 -18 -42 -18 -154 0 -197 18 -43 80 -86 123 -86 39 0 46 25 10 34 -42 10 -98 68 -107 110 -16 74 2 123 62 166 84 61 193 26 234 -74 23 -56 44 -60 44 -8 0 64 -53 126 -122 142 -49 11 -86 11 -141 0z"></path><path id="pHDm2lSYK" d="M3041 2681 c-54 -14 -102 -70 -108 -125 -5 -37 -3 -46 10 -46 8 0 18 11 21 24 8 32 52 83 87 101 40 21 106 19 145 -6 109 -67 96 -227 -22 -276 -50 -21 -58 -43 -15 -43 41 0 81 17 81 34 0 7 9 16 20 19 48 12 67 155 31 233 -25 56 -73 83 -153 89 -34 2 -78 0 -97 -4z"></path><path id="pKaJiE77g" d="M2775 2459 c-9 -40 -74 -105 -114 -114 -45 -10 -40 -35 7 -35 72 0 142 73 142 149 0 41 -26 41 -35 0z"></path><path id="pbuRWBSmt" d="M2932 2436 c5 -40 42 -96 63 -96 4 0 13 -7 21 -15 19 -18 84 -20 84 -2 -1 6 -23 22 -50 35 -40 19 -53 32 -72 72 -30 64 -52 67 -46 6z"></path><path id="pYWVIyhZR" d="M3497 1943 c-4 -3 -7 -15 -7 -25 0 -11 -7 -18 -19 -18 -11 0 -21 -4 -23 -8 -6 -15 -132 -109 -190 -142 -32 -17 -58 -36 -58 -41 0 -5 -8 -9 -17 -9 -10 0 -50 -13 -89 -29 -102 -42 -204 -68 -321 -82 -89 -10 -103 -15 -103 -31 0 -23 14 -23 166 2 192 31 375 100 523 198 64 42 191 162 191 180 0 13 -42 17 -53 5z"></path></g></g><g id="l3seOD8XYrHcCqr39gQku6e" fill="rgb(203,220,234)" style="transform: none;"><g><path id="pbqH9SxF6" d="M3545 3521 c-32 -8 -100 -42 -125 -63 -9 -7 -26 -27 -37 -44 -19 -26 -21 -36 -12 -67 10 -38 29 -59 29 -33 0 9 4 16 9 16 5 0 14 13 21 29 18 45 173 151 219 151 6 0 11 5 11 10 0 11 -70 12 -115 1z"></path><path id="p13XPv31W9" d="M2105 3226 c-6 -8 -32 -16 -60 -19 -27 -2 -51 -9 -53 -16 -2 -6 -12 -11 -23 -11 -17 0 -56 -17 -69 -30 -3 -3 -31 -23 -62 -44 -32 -22 -58 -43 -58 -48 0 -4 -6 -8 -13 -8 -13 0 -40 -29 -135 -140 -71 -84 -135 -236 -147 -354 -7 -62 -6 -66 13 -66 16 0 21 9 26 48 9 67 42 149 83 204 l35 48 151 0 c84 1 479 1 880 1 512 0 727 3 727 11 0 6 6 5 16 -3 10 -8 46 -13 100 -13 46 -1 84 -4 84 -8 0 -4 9 -10 20 -13 11 -3 23 -17 26 -31 3 -13 10 -24 15 -24 5 0 9 -9 9 -20 0 -15 7 -20 25 -20 30 0 30 1 5 66 -36 97 -110 203 -206 298 -52 51 -91 96 -87 99 3 4 1 7 -5 7 -7 0 -12 18 -13 48 0 26 -3 41 -6 35 -3 -9 -32 -13 -93 -13 -74 0 -89 3 -95 18 -6 16 -7 16 -16 0 -13 -23 -89 -26 -89 -3 0 8 -5 15 -10 15 -6 0 -13 -7 -16 -15 -5 -13 -57 -15 -381 -15 -346 0 -377 1 -389 18 -13 16 -14 16 -8 0 6 -16 -2 -18 -75 -18 -65 0 -81 3 -81 15 0 19 -12 19 -25 1z"></path><path id="pB1kydTK5" d="M2013 2669 c-49 -24 -83 -73 -83 -118 0 -43 21 -39 44 9 57 118 230 126 291 13 58 -107 -20 -233 -144 -233 -71 0 -122 33 -148 96 -22 54 -43 58 -43 8 0 -40 15 -74 33 -74 7 0 17 -10 22 -22 24 -55 190 -64 263 -15 52 34 72 79 72 164 0 96 -41 164 -109 183 -62 17 -152 12 -198 -11z"></path><path id="pSFjhXMPb" d="M2526 2680 c-65 -21 -106 -89 -106 -178 0 -61 15 -122 31 -122 5 0 9 -7 9 -15 0 -8 7 -15 15 -15 8 0 15 -5 15 -11 0 -18 68 -39 127 -38 78 0 127 18 131 47 2 14 10 22 23 22 49 0 68 162 26 234 -12 22 -31 44 -42 50 -11 6 -23 15 -27 20 -9 13 -166 18 -202 6z m147 -34 c86 -20 132 -135 91 -223 -40 -82 -158 -111 -238 -57 -109 74 -76 260 51 284 38 8 44 7 96 -4z"></path><path id="plWz5Qifa" d="M3024 2679 c-36 -10 -91 -67 -100 -104 -11 -43 0 -169 16 -189 38 -46 66 -67 104 -77 50 -14 168 -7 174 9 2 7 9 12 16 12 16 0 49 37 70 77 33 65 14 187 -36 236 -44 43 -161 60 -244 36z m185 -52 c36 -22 70 -84 71 -130 0 -40 -23 -88 -58 -121 -23 -21 -44 -30 -81 -34 -67 -6 -91 1 -137 43 -39 36 -39 37 -39 110 0 72 1 76 36 111 57 57 136 65 208 21z"></path><path id="p13Ze4Nlla" d="M3702 2593 c2 -31 7 -39 26 -41 25 -4 28 11 10 51 -19 41 -40 35 -36 -10z"></path><path id="p50yzFKj0" d="M1480 2414 c0 -8 5 -47 11 -86 23 -146 107 -303 231 -429 81 -82 82 -83 86 -55 3 23 -5 37 -39 72 -24 24 -51 44 -61 44 -11 0 -18 7 -18 20 0 24 -50 99 -67 100 -7 0 -13 9 -13 20 0 12 -9 39 -21 62 -32 63 -58 147 -65 211 -6 47 -10 57 -25 57 -11 0 -19 -7 -19 -16z"></path><path id="pSY373XyG" d="M3462 1905 c-12 -14 -22 -32 -22 -40 0 -9 -10 -15 -25 -15 -21 0 -25 -5 -25 -31 l0 -30 28 20 c35 25 95 81 111 104 23 30 -40 23 -67 -8z"></path><path id="p4DXxLIYL" d="M1865 1780 c7 -12 71 -54 125 -83 103 -55 287 -117 393 -131 42 -7 47 -5 47 12 0 16 -8 21 -37 24 -45 5 -216 50 -223 58 -3 3 -30 16 -60 29 -30 13 -59 27 -64 32 -6 5 -20 9 -32 9 -12 0 -24 7 -28 15 -3 8 -17 15 -31 15 -16 0 -25 6 -25 15 0 11 -11 15 -36 15 -22 0 -33 -4 -29 -10z"></path><path id="pEBuVTRpl" d="M3310 1775 c0 -9 -9 -15 -25 -15 -18 0 -25 -5 -25 -20 0 -15 -7 -20 -30 -20 -28 0 -79 -18 -90 -31 -3 -3 -18 -9 -35 -13 -16 -4 -32 -11 -35 -15 -6 -8 -211 -61 -239 -61 -15 0 -21 -6 -21 -21 0 -18 4 -20 48 -13 72 10 185 42 275 79 89 35 218 107 237 130 11 13 7 15 -24 15 -25 0 -36 -4 -36 -15z"></path><path id="pyRSOSMWm" d="M2440 1573 c0 -18 63 -28 180 -28 117 0 180 10 180 28 0 9 -46 12 -180 12 -134 0 -180 -3 -180 -12z"></path></g></g><g id="l7A3Ih9gywZgaIcpYT2SuAG" fill="rgb(220,231,240)" style="transform: none;"><g><path id="pJJTxffdO" d="M3396 2865 c-4 -10 1 -15 14 -15 13 0 18 5 14 15 -4 8 -10 15 -14 15 -4 0 -10 -7 -14 -15z"></path><path id="pjC4JCkP5" d="M1634 2842 c-25 -17 -94 -122 -113 -171 -63 -166 -46 -372 44 -552 33 -64 103 -164 139 -198 l26 -24 0 34 c0 33 -26 69 -50 69 -6 0 -10 9 -10 20 0 11 -4 20 -10 20 -5 0 -10 7 -10 15 0 8 -4 15 -9 15 -5 0 -12 11 -15 24 -3 14 -12 31 -19 38 -25 27 -77 192 -77 246 0 72 0 72 199 72 188 0 191 -1 191 -46 0 -21 65 -83 105 -100 45 -19 146 -18 193 2 45 18 102 72 102 95 0 33 12 49 36 49 26 0 64 -27 64 -46 0 -23 54 -77 95 -95 41 -19 125 -25 186 -12 41 8 117 82 125 123 6 26 11 30 39 30 27 0 34 -5 39 -26 11 -43 96 -120 141 -127 84 -14 145 -8 190 18 50 30 95 84 95 114 0 20 5 21 178 21 166 0 179 -1 192 -20 8 -11 22 -20 32 -20 16 0 18 10 18 80 0 44 -4 88 -9 98 -6 9 -13 38 -16 65 -3 26 -10 47 -16 47 -5 0 -9 12 -9 26 0 14 -4 23 -9 20 -5 -4 -12 7 -16 24 -4 17 -10 28 -15 25 -5 -3 -15 2 -23 10 -9 8 -27 15 -41 15 -16 0 -26 6 -26 15 0 8 -9 15 -20 15 -13 0 -20 -7 -20 -20 0 -11 -4 -20 -10 -20 -5 0 -10 7 -10 15 0 8 -4 15 -10 15 -5 0 -10 -4 -10 -10 0 -5 -9 -10 -19 -10 -11 0 -23 5 -26 10 -3 6 -22 10 -41 10 -19 0 -34 -4 -34 -10 0 -5 -7 -10 -15 -10 -8 0 -15 4 -15 9 0 4 -18 8 -40 8 -22 0 -40 -4 -40 -8 0 -14 -38 -10 -43 4 -4 10 -6 10 -6 0 -1 -7 -10 -13 -20 -13 -11 0 -22 6 -25 13 -5 10 -7 10 -12 0 -6 -14 -44 -18 -44 -5 0 4 -16 8 -35 8 -19 0 -35 -4 -35 -8 0 -13 -38 -9 -44 5 -5 10 -7 10 -12 0 -3 -7 -14 -13 -24 -13 -10 0 -21 6 -24 13 -5 10 -7 10 -12 0 -6 -15 -34 -18 -34 -4 0 4 -18 8 -40 8 -22 0 -40 -4 -40 -8 0 -14 -38 -10 -43 4 -4 10 -6 10 -6 0 -1 -7 -10 -13 -20 -13 -11 0 -22 6 -25 13 -5 10 -7 10 -12 0 -6 -14 -44 -18 -44 -5 0 4 -16 8 -35 8 -19 0 -35 -4 -35 -8 0 -13 -38 -9 -44 5 -5 10 -7 10 -12 0 -3 -7 -14 -13 -24 -13 -10 0 -21 6 -24 13 -5 10 -7 10 -12 0 -6 -15 -34 -18 -34 -4 0 4 -18 8 -40 8 -22 0 -40 -4 -40 -8 0 -14 -28 -11 -34 4 -5 10 -7 10 -12 0 -3 -7 -14 -13 -24 -13 -10 0 -21 6 -24 13 -5 10 -7 10 -12 0 -6 -14 -44 -18 -44 -5 0 4 -16 8 -35 8 -19 0 -35 -4 -35 -8 0 -13 -38 -9 -44 5 -5 10 -7 10 -12 0 -3 -7 -14 -13 -24 -13 -10 0 -21 6 -23 13 -4 10 -6 10 -6 0 -1 -14 -41 -18 -41 -4 0 4 -18 8 -40 8 -22 0 -40 -4 -40 -8 0 -14 -28 -11 -34 4 -5 10 -7 10 -12 0 -3 -7 -14 -13 -24 -13 -10 0 -21 6 -24 13 -5 10 -7 10 -12 0 -3 -7 -14 -13 -24 -13 -10 0 -21 6 -24 13 -5 10 -7 10 -12 0 -3 -7 -12 -13 -19 -13 -7 0 -16 6 -19 13 -5 10 -7 10 -12 0 -8 -18 -34 -16 -34 2 0 16 -9 19 -26 7z m555 -195 c51 -18 93 -76 99 -135 15 -160 -183 -243 -292 -122 -33 37 -36 45 -36 101 0 77 24 119 83 148 47 23 95 26 146 8z m531 -17 c17 -12 39 -39 50 -60 82 -161 -131 -317 -264 -194 -56 52 -70 127 -37 192 36 71 81 94 168 87 33 -2 64 -12 83 -25z m465 16 c19 -8 43 -23 53 -33 25 -25 52 -85 52 -117 0 -40 -35 -101 -77 -133 -30 -23 -46 -28 -92 -28 -97 1 -161 58 -169 150 -10 126 113 211 233 161z"></path><path id="p1H52aft7z" d="M3706 2374 c-3 -9 -6 -38 -6 -65 0 -80 32 -57 45 34 7 43 5 47 -13 47 -11 0 -23 -7 -26 -16z"></path><path id="pr28rQ5Ja" d="M3658 2195 c-7 -25 -16 -45 -20 -45 -4 0 -8 -13 -8 -29 0 -20 -6 -30 -20 -34 -15 -4 -20 -14 -20 -41 0 -32 -3 -36 -25 -36 -22 0 -25 -4 -25 -35 0 -19 2 -35 4 -35 13 0 98 125 128 190 51 107 52 110 23 110 -21 0 -27 -7 -37 -45z"></path><path id="pxfFdoZKT" d="M3412 1868 c-7 -7 -12 -18 -12 -25 0 -7 -9 -13 -20 -13 -11 0 -23 -7 -26 -15 -4 -8 -12 -15 -20 -15 -8 0 -14 -4 -14 -10 0 -5 -6 -10 -14 -10 -8 0 -21 -6 -28 -13 -7 -7 -28 -19 -45 -26 -25 -10 -33 -20 -33 -38 0 -20 4 -24 18 -19 42 16 173 102 223 146 l54 49 -35 1 c-20 0 -41 -5 -48 -12z"></path><path id="pV8m3X5d8" d="M1776 1849 c40 -45 207 -152 281 -180 20 -7 23 -5 23 16 0 21 -5 25 -30 25 -20 0 -30 5 -30 15 0 8 -11 17 -25 21 -14 3 -25 10 -25 15 0 5 -11 9 -25 9 -16 0 -25 6 -25 15 0 8 -4 15 -9 15 -5 0 -26 16 -47 35 -28 26 -47 35 -73 35 -34 0 -34 0 -15 -21z"></path><path id="pEOlrW72g" d="M3120 1664 c0 -14 3 -24 8 -22 73 35 80 48 27 48 -31 0 -35 -3 -35 -26z"></path><path id="pra9YoQqO" d="M2130 1651 c0 -5 8 -15 18 -20 26 -14 189 -58 245 -66 43 -6 47 -4 47 14 0 14 -6 21 -20 21 -11 0 -64 12 -117 26 -117 32 -173 40 -173 25z"></path><path id="paopaUrsJ" d="M3039 1655 c-8 -7 -197 -55 -219 -55 -14 0 -20 -7 -20 -21 0 -19 4 -20 43 -14 121 19 267 65 267 84 0 11 -62 16 -71 6z"></path><path id="pdPNnL93o" d="M2470 1576 c0 -15 30 -26 73 -26 20 0 27 5 27 20 0 17 -7 20 -50 20 -36 0 -50 -4 -50 -14z"></path><path id="pBw14rdGj" d="M2680 1570 c0 -21 23 -26 68 -14 41 11 26 34 -23 34 -38 0 -45 -3 -45 -20z"></path></g></g><g id="l7H2LWFCTqdODqQ8q6iQj94" fill="rgb(241,245,249)" style="transform: none;"><g><path id="pVUDOcEhz" d="M1550 2543 c0 -5 4 -14 9 -21 6 -10 10 -9 14 7 3 14 0 21 -9 21 -8 0 -14 -3 -14 -7z"></path><path id="pVvXGd6IU" d="M1600 2530 c0 -11 5 -20 10 -20 6 0 10 9 10 20 0 11 -4 20 -10 20 -5 0 -10 -9 -10 -20z"></path><path id="p6hW0oqa1" d="M1660 2530 c0 -11 5 -20 10 -20 6 0 10 9 10 20 0 11 -4 20 -10 20 -5 0 -10 -9 -10 -20z"></path><path id="pEs4CBLIE" d="M1830 2530 c0 -11 5 -20 10 -20 6 0 10 9 10 20 0 11 -4 20 -10 20 -5 0 -10 -9 -10 -20z"></path><path id="pPWa4rpkP" d="M1880 2530 c0 -11 5 -20 10 -20 6 0 10 9 10 20 0 11 -4 20 -10 20 -5 0 -10 -9 -10 -20z"></path><path id="pPipFMRfM" d="M2327 2536 c-4 -10 -5 -21 -2 -24 9 -9 17 6 13 25 -3 17 -4 17 -11 -1z"></path><path id="pjXkkIdXQ" d="M2390 2543 c0 -5 5 -15 10 -23 8 -12 10 -11 10 8 0 12 -4 22 -10 22 -5 0 -10 -3 -10 -7z"></path><path id="pZwzfm8ew" d="M2900 2531 c0 -10 7 -21 15 -25 16 -6 19 3 9 28 -8 22 -24 20 -24 -3z"></path><path id="p150k0WqCy" d="M3400 2530 c0 -11 5 -20 10 -20 6 0 10 9 10 20 0 11 -4 20 -10 20 -5 0 -10 -9 -10 -20z"></path><path id="pog0GmoEL" d="M3460 2530 c0 -11 5 -20 10 -20 6 0 10 9 10 20 0 11 -4 20 -10 20 -5 0 -10 -9 -10 -20z"></path><path id="ph2ba3aR8" d="M3510 2530 c0 -11 5 -20 10 -20 6 0 10 9 10 20 0 11 -4 20 -10 20 -5 0 -10 -9 -10 -20z"></path><path id="p6KSg8R6R" d="M3630 2530 c0 -11 5 -20 10 -20 6 0 10 9 10 20 0 11 -4 20 -10 20 -5 0 -10 -9 -10 -20z"></path><path id="pK3RBJGKX" d="M1514 2465 c-19 -26 -18 -132 2 -209 29 -111 100 -236 195 -340 42 -46 178 -156 229 -185 181 -103 352 -155 562 -173 361 -30 700 72 949 285 137 117 251 302 279 452 5 28 12 62 16 77 8 33 -3 101 -16 93 -4 -3 -10 0 -12 7 -4 10 -52 13 -194 13 -104 0 -197 -2 -206 -4 -10 -2 -18 -12 -18 -23 0 -30 -52 -90 -102 -117 -39 -21 -52 -23 -103 -16 -52 6 -63 12 -107 56 -26 26 -51 61 -54 77 -6 27 -8 28 -67 28 -57 -1 -61 -3 -68 -28 -28 -104 -147 -163 -248 -122 -41 16 -101 74 -101 97 0 24 -42 48 -87 51 -50 3 -73 -12 -73 -48 0 -28 -53 -80 -102 -100 -47 -20 -89 -20 -133 -2 -43 18 -105 79 -105 103 -1 45 -8 46 -220 47 -191 1 -203 0 -216 -19z"></path></g></g></svg>